<?xml version="1.0" encoding="UTF-8"?>
<svg id="Layer_2" xmlns="http://www.w3.org/2000/svg" version="1.1" viewBox="0 0 170.1 306.1">
  <!-- Generator: Adobe Illustrator 30.2.1, SVG Export Plug-In . SVG Version: 2.1.1 Build 1)  -->
  <defs>
    <style>
      .st0 {
        stroke-miterlimit: 10;
        stroke-width: 2.3px;
      }

      .st0, .st1 {
        fill: none;
        stroke: #ae2f2f;
      }

      .st2 {
        fill: #4f1515;
      }

      .st3 {
        fill: #ae2f2f;
      }

      .st1 {
        stroke-linecap: round;
        stroke-linejoin: round;
        stroke-width: 1.1px;
      }
    </style>
  </defs>
  <rect class="st2" x="-14" y="-17.9" width="198" height="342"/>
  <g id="Layer_2-2">
    <g>
      <g>
        <path class="st3" d="M1.1,68.2c0,0-.2,0-.3,0v1.8h.6v-1.8c0,0-.2,0-.3,0Z"/>
        <path class="st3" d="M6.5,63.3l.6,6.4c.2,0,.4,0,.5,0l-.7-7.3-.5.9h0Z"/>
        <path class="st3" d="M10.7,55.5l2.5,13.5c.2,0,.4,0,.5,0l-2.6-14.2-.4.8Z"/>
        <path class="st3" d="M14.1,49.3l5.2,18.5c.2,0,.3-.1.5-.1l-5.3-19-.4.7Z"/>
        <path class="st3" d="M18.3,47.9l6.9,18.1c.2,0,.3-.1.5-.2l-6.7-17.6s-.7-.4-.7-.4Z"/>
        <path class="st3" d="M24.7,51.1l6.2,12.7c.2,0,.3-.1.5-.2l-5.9-12-.8-.4h0Z"/>
        <path class="st3" d="M32.9,55.1l3.5,5.9c.2,0,.3-.2.5-.3l-3.1-5.2-.9-.5h0Z"/>
        <path class="st3" d="M62.7,35.7l-6.1-3.4.5.9,5.4,3c0-.2.2-.3.3-.5h0Z"/>
        <path class="st3" d="M65.6,30.4l-13.2-5.9.4.8,12.5,5.6c0-.2.2-.3.2-.5Z"/>
        <path class="st3" d="M68,24.9l-18.9-6.6.4.7,18.3,6.4c0-.2.1-.3.2-.5Z"/>
        <path class="st3" d="M69.8,19.3l-18.7-4.8-.7.4,19.3,5c0-.2.1-.3.2-.5h0Z"/>
        <path class="st3" d="M71.1,13.5l-13.5-2.3-.8.4,14.2,2.4c0-.2,0-.3,0-.5Z"/>
        <path class="st3" d="M71.9,7.6l-6-.5-.9.5,6.9.6c0-.2,0-.4,0-.5h0Z"/>
        <path class="st3" d="M72.2,1.9v-.3h-1.1c0,0,0,.2,0,.3s0,.2,0,.3h1.1v-.3Z"/>
        <path class="st3" d="M71.8-4.3l-6.9.6.9.5,6-.5c0-.2,0-.4,0-.5h0Z"/>
        <path class="st3" d="M42.4,59.9l-2.2-1.1c-1.1.7-2.2,1.3-3.3,2-.2,0-.3.2-.5.3-1.6.9-3.3,1.7-5,2.5-.2,0-.3.1-.5.2-1.7.8-3.4,1.5-5.2,2.1-.2,0-.3.1-.5.2-1.8.6-3.6,1.2-5.4,1.6-.2,0-.3.1-.5.1-1.8.5-3.6.8-5.5,1.2-.2,0-.4,0-.5,0-1.8.3-3.7.5-5.6.7-.2,0-.4,0-.5,0-1.9.1-3.7.2-5.6.2h-.6c-.5,0-1.1,0-1.6,0v2.1c.6,0,1.3,0,1.9,0,15.3,0,29.5-4.5,41.3-12.3h0Z"/>
        <path class="st3" d="M71.9-3.8c.2,1.8.3,3.6.3,5.4v.5c0,1.8-.1,3.6-.3,5.4,0,.2,0,.4,0,.5-.2,1.8-.4,3.6-.7,5.4,0,.2,0,.3,0,.5-.3,1.8-.7,3.6-1.2,5.3,0,.2-.1.3-.2.5-.5,1.8-1.1,3.5-1.7,5.2,0,.2-.1.3-.2.5-.7,1.7-1.4,3.4-2.2,5,0,.2-.2.3-.2.5-.8,1.6-1.7,3.2-2.6,4.8,0,.2-.2.3-.3.5-.7,1.1-1.3,2.1-2.1,3.2l1.2,2.1c8.1-11.3,12.8-24.9,12.8-39.6s-.1-4.8-.4-7.2h-2.2c0,.3,0,.6,0,.9,0,.2,0,.4,0,.5h0Z"/>
        <path class="st3" d="M65.3,48.4l1.1,2.1c10.9-13.4,17.4-30.3,17.4-48.5s-.1-4.8-.3-7.2h-2.2c.2,2.4.4,4.7.4,7.2,0,17.4-6.1,33.5-16.3,46.5h0Z"/>
        <path class="st3" d="M51.7,64.5l-2.2-1.1c-13.5,9.8-30.3,15.6-48.4,15.6s-1.3,0-1.9,0v2.1c.6,0,1.3,0,1.9,0,19,0,36.6-6.2,50.6-16.7Z"/>
        <path class="st3" d="M14.4,76.1c0,0,.2,0,.3,0h.1c.9-.2,1.4-1,1.3-1.8s-1-1.4-1.9-1.3c-.9.1-1.5.9-1.3,1.8.1.8.8,1.3,1.6,1.3h0Z"/>
        <path class="st3" d="M78,3.6c.9,0,1.6-.7,1.6-1.6h0v-.2h0v-.2h0c0-.9-.7-1.6-1.6-1.6s-1.6.7-1.6,1.6h0v.2h0c0,1,.7,1.7,1.6,1.7h0Z"/>
        <path class="st3" d="M39.5,67.3c.3,0,.6,0,.8-.2l-.7-1.4.8,1.4c.8-.4,1-1.4.6-2.1-.4-.7-1.4-1-2.2-.6,0,0-.1,0-.1,0-.8.4-1,1.4-.6,2.1.3.5.8.8,1.4.8h0Z"/>
        <path class="st3" d="M68.5,37.4c-.8-.4-1.8-.1-2.2.6-.5.7-.2,1.7.6,2.1.3.1.5.2.8.2.6,0,1.1-.3,1.4-.8,0,0,0-.1,0-.1.4-.7.2-1.7-.6-2.1h0Z"/>
        <path class="st3" d="M1.2,75.6v1.6c.9,0,1.6-.7,1.6-1.6s-.8-1.6-1.7-1.6v3.1c0,0,.1-1.6.1-1.6Z"/>
        <path class="st3" d="M27.4,72.8c.2,0,.4,0,.6-.1l-.5-1.5.6,1.5c.8-.3,1.3-1.2,1-2s-1.2-1.2-2.1-.9c0,0-.1,0-.1,0-.8.3-1.3,1.2-1,2,.2.6.9,1,1.5,1Z"/>
        <path class="st3" d="M77.5,10h.1c.8,0,1.6-.6,1.6-1.4l-1.6-.2h1.6c0-.7-.6-1.5-1.5-1.6-.9,0-1.7.5-1.8,1.4,0,0,0,.1,0,.1,0,.9.6,1.6,1.5,1.7Z"/>
        <path class="st3" d="M73.9,25.7c-.8-.3-1.8.2-2.1,1s.1,1.7,1,2,.4.1.6.1c.7,0,1.3-.4,1.5-1,0,0,0-.1,0-.1.3-.8-.2-1.7-1-2h0Z"/>
        <path class="st3" d="M75.8,19.4c-.9-.2-1.8.3-2,1.1,0,0,0,.1,0,.1-.2.8.3,1.7,1.2,1.9.1,0,.3,0,.4,0,.7,0,1.4-.5,1.6-1.2l-1.5-.5,1.6.4c.2-.8-.3-1.7-1.1-1.9h0Z"/>
        <path class="st3" d="M71.5,31.7c-.8-.4-1.8,0-2.2.8-.4.8,0,1.7.8,2.1.2.1.5.2.7.2.6,0,1.2-.3,1.5-.9,0,0,0-.1,0-.1.4-.8,0-1.7-.8-2h0Z"/>
        <path class="st3" d="M65.3,45.1s0,0,0-.1c.5-.7.3-1.6-.4-2.1-.7-.5-1.8-.3-2.3.4,0,0,0,0,0,.1l1.3,2.3s0,0,.1,0c.5,0,1-.2,1.3-.7h0Z"/>
        <path class="st3" d="M77.7-3.1h.1c.9,0,1.6-.8,1.5-1.7h0c0-.3,0-.4,0-.5h-3c0,.2-.2.5-.1.7,0,.8.8,1.4,1.6,1.4h0Z"/>
        <path class="st3" d="M33.5,70.3c.2,0,.5,0,.7-.2l-.6-1.5.7,1.4c.8-.4,1.2-1.3.8-2.1-.4-.8-1.4-1.1-2.2-.8h-.1c-.8.4-1.2,1.4-.8,2.1.3.6.9.9,1.5.9h0Z"/>
        <path class="st3" d="M7.8,76.9h.1s.1,0,.1,0c.9,0,1.5-.8,1.4-1.7s-.9-1.5-1.8-1.4c-.9,0-1.6.8-1.5,1.7,0,.8.8,1.4,1.6,1.4Z"/>
        <path class="st3" d="M21,74.7c.1,0,.3,0,.4,0,0,0,.1,0,.1,0,.9-.2,1.3-1.1,1.1-1.9-.2-.8-1.2-1.3-2-1.1-.9.2-1.4,1.1-1.2,1.9.2.7.8,1.2,1.6,1.2h0Z"/>
        <path class="st3" d="M76.5,16.3c0,0,.2,0,.3,0,.8,0,1.5-.5,1.6-1.3l-1.6-.4-1.6-.2c-.2.8.4,1.7,1.3,1.8h0Z"/>
        <path class="st3" d="M44.3,61s0,0-.1,0c-.7.5-.9,1.5-.4,2.2.3.4.8.7,1.3.7s.7,0,.9-.3l-.8-1.3.9,1.3c.5-.3.7-.9.7-1.5l-2.4-1.2c0,0-.1,0-.2,0h0Z"/>
        <polygon class="st2" points="12.7 33.6 10.8 34.5 11.9 35.1 12.7 33.6"/>
        <polygon class="st2" points="61.5 59.8 40 20 26.4 26.7 19.7 39 61.5 59.8"/>
        <path class="st2" d="M1.2,29.7l18.7-9.3L30.1,1.7l-3.7-6.9h-4c-.5,1.9-1.5,3.7-3,5.2-.8.8-1.8,1.5-2.9,2,1.1.5,2,1.2,2.9,2,4.4,4.3,4.4,11.2,0,15.4-2.2,2.1-5,3.2-8,3.2s-5.9-1.1-8-3.2-1.5-1.7-2.1-2.8c-.5.9-1.1,1.8-1.9,2.6v9.7l1.9.9h0Z"/>
        <polygon class="st2" points="1.1 54.8 7.8 42.6 1.2 39.3 -.8 40.3 -.8 51.3 1.1 54.8"/>
        <path class="st2" d="M1.2-3.9c.4,0,.7,0,1.1.1,0-.3,0-.7,0-1-.6.2-1.1.6-1.5,1,.2,0,.3,0,.4,0h0Z"/>
        <path class="st2" d="M10.9,11.2c-.2-1.2-1.1-2.8-2.6-4.3-.7-.7-1.5-1.2-2.2-1.7-.4.5-.8.9-1.4,1.3.4.7,1,1.4,1.7,2.1,1.5,1.5,3.2,2.4,4.4,2.5h0Z"/>
        <polygon class="st2" points="35.9 12.4 35 10.9 33.5 13.6 35.9 12.4"/>
        <polygon class="st2" points="43.6 -4.8 40 1.7 43.7 8.5 57.1 1.9 43.6 -4.8"/>
        <path class="st2" d="M6.4-4.9c-.7.7-1.3,1.4-1.7,2.1.5.4,1,.8,1.4,1.3.7-.4,1.5-1,2.2-1.7.7-.7,1.3-1.4,1.7-2.1h-3.2c-.1.1-.3.2-.4.4Z"/>
        <path class="st2" d="M0,12.9c0-.5.5-.9,1.1-.9h0c.5,0,1,.4,1.1.9.3,1.9,1.2,3.6,2.5,4.9,1.7,1.7,4,2.6,6.5,2.6s4.7-.9,6.5-2.6c3.6-3.4,3.6-9,0-12.4-1.4-1.3-3.1-2.2-5.1-2.4-.5,0-.9-.5-.9-1.1s.4-1,.9-1.1c2-.3,3.7-1.1,5.1-2.4,1.1-1.1,1.9-2.3,2.3-3.7h-4.8c-.3,1.4-1,2.8-2.2,4-1.7,1.6-4,2.4-6,2.1,0,.3.1.7.1,1s0,.7-.1,1c2-.2,4.3.5,6,2.2,2.8,2.6,3.1,6.6.7,8.9-2.4,2.3-6.6,2-9.3-.7-1.7-1.6-2.5-3.8-2.2-5.8-.3,0-.7.1-1.1.1s-.7,0-1.1-.1c.2,1.3-.1,2.6-.8,3.9v4c.4-.8.7-1.6.8-2.5h0Z"/>
        <path class="st3" d="M1.1,66.1c.8,0,1.6-.4,2-1.1l11.6-21.3,56.2,28c.8.4,1.9.3,2.6-.4.7-.7.8-1.7.4-2.5L44.9,15.2l22.9-11.4c.7-.4,1.2-1.1,1.2-1.9S68.4.4,67.7,0l-10.6-5.3h-4.2l13.9,6.9c0,0,.2.1.2.2s0,.2-.2.2l-24.6,12.2,29.9,55.3c0,.1,0,.2,0,.3,0,0-.1,0-.2,0s0,0-.1,0L13.9,41.2,1.4,64.1c0,.2-.4.2-.5,0l-1.7-3v4c.4.6,1.1,1.1,1.9,1.1h0Z"/>
        <polygon class="st3" points="-.8 33.9 -.8 35.2 .5 34.5 -.8 33.9"/>
        <polygon class="st3" points="1.1 63.4 13.4 40.9 1.2 34.8 -.8 35.8 -.8 37.9 1.2 36.9 10.8 41.7 1.1 59.4 -.8 55.9 -.8 59.9 1.1 63.4"/>
        <polygon class="st3" points="1.2 34.2 22.9 23.4 34.7 1.7 31 -5.3 28.8 -5.3 32.6 1.7 21.5 22 1.2 32.1 -.8 31.2 -.8 33.3 1.2 34.2"/>
        <path class="st3" d="M1.8,34.5l11.9,5.9,8.8-16.2L1.8,34.5h0ZM12.8,37.9l-6.9-3.4,12-6s-5.1,9.4-5.1,9.4Z"/>
        <path class="st3" d="M35.1,2.3l-11.3,20.7,17.7-8.8-6.4-11.9h0ZM28.3,18.6l6.7-12.3,3.8,7.1s-10.5,5.3-10.5,5.3Z"/>
        <polygon class="st3" points="35.1 1.1 38.5 -5.3 36.3 -5.3 35.1 -2.9 33.8 -5.3 31.6 -5.3 35.1 1.1"/>
        <polygon class="st3" points="35.4 1.7 42 13.9 66.1 1.9 51.7 -5.3 47.5 -5.3 61.9 1.9 42.8 11.4 37.5 1.7 41.3 -5.3 39.1 -5.3 35.4 1.7"/>
        <path class="st3" d="M41.7,14.6l-18.4,9.2-9.2,16.9,57.1,28.5S41.7,14.6,41.7,14.6ZM66.7,64.8l-50-24.9,8-14.7,16.1-8,25.8,47.7Z"/>
        <path class="st2" d="M1.1,68.2c0,0,.2,0,.3,0,1.5-.1,2.9-.9,3.6-2.3l1.4-2.6.5-.9,3.8-6.9.4-.8,3-5.4.4-.7,1.1-2.1,2.7,1.3.7.4,5.7,2.8.8.4,7.3,3.6.9.5,6.4,3.2,2.2,1.1,2,1,2.4,1.2,2.7,1.4,2.2,1.1,18.1,9c.6.3,1.3.5,2,.5,1.2,0,2.3-.4,3.1-1.2,1.4-1.3,1.7-3.3.8-5l-9.4-17.4-1.1-2.1-1.4-2.6-1.3-2.3-1.1-2-1.2-2.1-3.3-6.2-.5-.9-3.8-7-.4-.8-3-5.5-.4-.7-1.2-2.3,2.5-1.3.7-.4,5.8-2.9.8-.4,7.3-3.7.9-.5,2.8-1.4c1.4-.7,2.3-2,2.4-3.5,0,0,0-.2,0-.3s0-.2,0-.3c0-1.5-1-2.8-2.4-3.5l-2.8-1.4-.9-.5-3.1-1.5h-4.8L67.7,0c.7.4,1.2,1.1,1.2,1.9s-.5,1.5-1.2,1.9l-22.9,11.4,29,53.6c.4.8.3,1.8-.4,2.5-.7.6-1.7.8-2.6.4L14.7,43.7l-11.6,21.3c-.4.7-1.1,1.1-2,1.1s-1.5-.4-1.9-1.1v2.8c.5.2,1.1.4,1.6.4,0,0,.2,0,.3,0h0Z"/>
        <path class="st2" d="M35.1,6.3l-6.7,12.3,10.5-5.3s-3.8-7.1-3.8-7.1ZM35,10.9l.8,1.6-2.3,1.2,1.5-2.7h0Z"/>
        <path class="st2" d="M5.9,34.5l6.9,3.4,5.1-9.4s-12,6-12,6ZM12.7,33.6l-.8,1.5-1.1-.6s2-1,2-1Z"/>
        <polygon class="st2" points="1.2 32.1 21.5 22 32.6 1.7 28.8 -5.3 26.3 -5.3 30.1 1.7 19.8 20.4 1.2 29.7 -.8 28.8 -.8 31.2 1.2 32.1"/>
        <polygon class="st2" points="1.1 59.4 10.8 41.7 1.2 36.9 -.8 37.9 -.8 40.3 1.2 39.3 7.8 42.6 1.1 54.8 -.8 51.3 -.8 55.9 1.1 59.4"/>
        <path class="st2" d="M37.5,1.7l5.3,9.7L61.9,1.9l-14.4-7.1h-6.2s-3.8,6.9-3.8,6.9ZM57.1,1.9l-13.3,6.6-3.7-6.8,3.6-6.5,13.5,6.7h0Z"/>
        <polygon class="st2" points="35.1 -2.9 36.3 -5.3 33.8 -5.3 35.1 -2.9"/>
        <path class="st2" d="M40.9,17.1l-16.1,8-8,14.7,50,24.9s-25.8-47.7-25.8-47.7ZM19.7,39l6.7-12.3,13.6-6.8,21.6,39.8s-41.8-20.8-41.8-20.8Z"/>
        <path class="st3" d="M1.2,16.6c.5,1,1.2,1.9,2.1,2.8,2.1,2.1,5,3.2,8,3.2s5.9-1.1,8-3.2c4.4-4.3,4.4-11.2,0-15.4s-1.8-1.5-2.9-2c1.1-.5,2-1.2,2.9-2,1.5-1.5,2.5-3.3,3-5.2h-2.3c-.4,1.3-1.2,2.6-2.3,3.7-1.4,1.3-3.1,2.2-5.1,2.4-.5,0-.9.5-.9,1.1s.4,1,.9,1.1c2,.3,3.7,1.1,5.1,2.4,3.6,3.4,3.6,9,0,12.4-1.7,1.7-4,2.6-6.5,2.6s-4.7-.9-6.5-2.6-2.2-3-2.5-4.9c0-.5-.5-.9-1.1-.9h0c-.5,0-1,.4-1.1.9-.1.9-.4,1.8-.8,2.5v3.7c.8-.8,1.4-1.6,1.9-2.6h0Z"/>
        <path class="st3" d="M0,7.6c-.3,0-.6-.1-.8-.2v4.1C0,10.2.2,8.9,0,7.6H0Z"/>
        <path class="st3" d="M8.2-3.2c-.7.7-1.5,1.2-2.2,1.7.5.7.9,1.5,1,2.4,2,.2,4.3-.5,6-2.1,1.2-1.2,1.9-2.6,2.2-4h-5.3c-.4.7-1,1.4-1.7,2.1Z"/>
        <path class="st3" d="M4.7-2.8c.4-.7,1-1.4,1.7-2.1.1-.1.3-.2.4-.4h-2.6c-.7,0-1.4.1-2,.4,0,.3,0,.7,0,1,.9.2,1.7.5,2.5,1h0Z"/>
        <path class="st3" d="M6.1,5.3c.7.4,1.5,1,2.2,1.7,1.5,1.5,2.5,3.1,2.6,4.3-1.2-.2-2.9-1.1-4.4-2.5-.7-.7-1.3-1.4-1.7-2.1-.7.5-1.5.8-2.5,1-.2,2,.5,4.1,2.2,5.8,2.8,2.6,6.9,2.9,9.3.7,2.4-2.3,2.1-6.3-.7-8.9s-4-2.4-6-2.2c-.2.9-.5,1.7-1,2.4h0Z"/>
        <path class="st2" d="M0,7.6c.3,0,.7.1,1.1.1s.7,0,1.1-.1c.9-.2,1.7-.5,2.5-1,.5-.4,1-.8,1.4-1.3.5-.7.9-1.5,1-2.4,0-.3.1-.7.1-1s0-.7-.1-1C6.9,0,6.6-.8,6.1-1.5c-.4-.5-.8-.9-1.4-1.3-.7-.5-1.5-.8-2.5-1-.3,0-.7-.1-1.1-.1s-.3,0-.4,0C-.2-3-.7-1.8-.7-.5h0C-.2-.8.4-1.1,1.2-1.1c1.7,0,3.1,1.4,3.1,3s-1.4,3-3.1,3-1.4-.2-1.9-.6v3.1c.3,0,.5.2.8.2h0Z"/>
        <path class="st3" d="M1.2,4.9c1.7,0,3.1-1.4,3.1-3S2.9-1.1,1.2-1.1-.2-.9-.8-.5v4.7c.5.4,1.2.6,1.9.6Z"/>
        <path class="st2" d="M.9,64.1c0,.2.4.2.5,0l12.5-22.9,57.9,28.8s0,0,.1,0c0,0,.1,0,.2,0,0,0,.1-.2,0-.3L42.2,14.4l24.6-12.2c0,0,.2-.1.2-.2s0-.2-.2-.2l-13.9-6.9h-1.2l14.4,7.1-24.1,12-6.6-12.2,3.8-6.9h-.6l-3.5,6.4-3.4-6.4h-.6l3.8,6.9-11.8,21.7L1.1,34.2l-1.9-.9v.6l1.3.7-1.3.7v.6l1.9-.9,12.2,6.1L1.1,63.4l-1.9-3.5v1.2l1.7,3h0ZM71.2,69.2L14.1,40.7l9.2-16.9,18.4-9.2,29.5,54.5ZM23.8,23L35.1,2.2l6.4,11.9-17.7,8.8h0ZM13.6,40.5l-11.9-5.9,20.7-10.3-8.8,16.2h0Z"/>
        <path class="st3" d="M168.9,70h.3v-1.8c0,0-.2,0-.3,0s-.2,0-.3,0v1.8h.3,0Z"/>
        <path class="st3" d="M105.1-3.7l-6.9-.6c0,.2,0,.4,0,.5l6,.5.9-.5h0Z"/>
        <path class="st3" d="M99,1.9c0,0,0-.2,0-.3h-1.1v.5h1.1c0,0,0-.2,0-.3h0Z"/>
        <path class="st3" d="M104.2,7.1l-6,.5c0,.2,0,.4,0,.5l6.9-.6-.9-.5h0Z"/>
        <path class="st3" d="M112.4,11.2l-13.5,2.3c0,.2,0,.3,0,.5l14.2-2.4s-.8-.4-.8-.4Z"/>
        <path class="st3" d="M119,14.5l-18.7,4.8c0,.2.1.3.2.5l19.3-5s-.7-.4-.7-.4Z"/>
        <path class="st3" d="M121,18.3l-18.9,6.6c0,.2.1.3.2.5l18.3-6.4.4-.7h0Z"/>
        <path class="st3" d="M117.7,24.5l-13.2,5.9c0,.2.2.3.2.5l12.5-5.6s.4-.8.4-.8Z"/>
        <path class="st3" d="M113.5,32.3l-6.1,3.4c0,.2.2.3.3.5l5.4-3s.5-.9.5-.9Z"/>
        <path class="st3" d="M133.7,61l3.6-5.9-.9.5-3.1,5.2c.2,0,.3.2.5.3h0Z"/>
        <path class="st3" d="M139.2,63.7l6.2-12.7-.8.4-5.9,12.1c.2,0,.3.1.5.2h0Z"/>
        <path class="st3" d="M144.9,66l6.9-18.2-.7.4-6.7,17.6c.2,0,.3.1.5.2Z"/>
        <path class="st3" d="M150.8,67.8l5.1-18.4-.4-.7-5.3,19c.2,0,.3.1.5.1Z"/>
        <path class="st3" d="M156.9,69l2.5-13.4-.4-.8-2.6,14.1c.2,0,.4,0,.5,0Z"/>
        <path class="st3" d="M163,69.8l.6-6.4-.5-.9-.7,7.2c.2,0,.4,0,.5,0h0Z"/>
        <path class="st3" d="M108.5,41.5l1.2-2.2c-.7-1-1.4-2.1-2-3.2,0-.2-.2-.3-.3-.5-.9-1.6-1.8-3.2-2.6-4.8,0-.2-.2-.3-.2-.5-.8-1.6-1.5-3.3-2.2-5,0-.2-.1-.3-.2-.5-.6-1.7-1.2-3.4-1.7-5.2,0-.2-.1-.3-.2-.5-.5-1.7-.9-3.5-1.2-5.3,0-.2,0-.3,0-.5-.3-1.8-.6-3.6-.7-5.4,0-.2,0-.4,0-.5-.2-1.8-.3-3.6-.3-5.4v-.5c0-1.8.1-3.6.3-5.4,0-.2,0-.4,0-.5,0-.3,0-.6,0-.9h-2.2c-.2,2.4-.4,4.7-.4,7.2,0,14.7,4.7,28.3,12.8,39.6h0Z"/>
        <path class="st3" d="M168.9,70h-.3c-1.9,0-3.8-.1-5.6-.2-.2,0-.4,0-.5,0-1.9-.2-3.7-.4-5.6-.7-.2,0-.4,0-.5,0-1.9-.3-3.7-.7-5.5-1.2-.2,0-.3-.1-.5-.1-1.8-.5-3.6-1-5.4-1.6-.2,0-.3-.1-.5-.2-1.8-.6-3.5-1.3-5.2-2.1-.2,0-.3-.1-.5-.2-1.7-.8-3.4-1.6-5-2.5-.2,0-.3-.2-.5-.3-1.1-.6-2.2-1.3-3.3-2l-2.2,1.1c11.8,7.7,26,12.3,41.3,12.3s1.3,0,1.9,0v-2.1c-.5,0-1.1,0-1.6,0h-.3Z"/>
        <path class="st3" d="M103.7,50.4l1.1-2.1c-10.2-12.9-16.3-29-16.3-46.5s.1-4.8.4-7.2h-2.2c-.2,2.4-.3,4.7-.3,7.2,0,18.3,6.5,35.1,17.4,48.5Z"/>
        <path class="st3" d="M120.5,63.4l-2.2,1.1c14,10.4,31.5,16.7,50.6,16.7s1.3,0,1.9,0v-2.1c-.6,0-1.3,0-1.9,0-18.2,0-34.9-5.8-48.4-15.6Z"/>
        <line class="st1" x1="155.6" y1="74.5" x2="155.4" y2="76"/>
        <path class="st3" d="M101,39.5l1.5-.7-1.4.8c.3.5.8.8,1.4.8s.5,0,.8-.2c.8-.4,1-1.4.6-2.1,0,0,0-.1,0-.1-.5-.7-1.5-1-2.2-.5-.8.4-1,1.4-.6,2.1h0Z"/>
        <path class="st3" d="M97.8,33.7l1.5-.6-1.5.7c.3.6.9.9,1.5.9s.5,0,.7-.1c.8-.4,1.2-1.3.8-2.1,0,0,0-.1,0-.1-.4-.8-1.4-1.1-2.2-.7-.8.4-1.2,1.3-.8,2.1h0Z"/>
        <path class="st3" d="M90.8-4.5c0,.9.6,1.6,1.5,1.6h.1c.8,0,1.6-.7,1.6-1.5,0-.3,0-.6-.2-.9h-2.9c-.1.2-.2.4-.2.6h0c0,.1,0,.1,0,.1Z"/>
        <path class="st3" d="M92.3,6.8c-.9,0-1.6.8-1.5,1.7,0,0,0,.1,0,.1,0,.8.8,1.4,1.6,1.4h.2c.9,0,1.5-.9,1.5-1.7,0-.9-.8-1.5-1.7-1.4Z"/>
        <path class="st3" d="M95.2,27.6l1.6-.4-1.5.5c.2.6.9,1,1.5,1s.4,0,.6,0c.8-.3,1.3-1.2,1-2,0,0,0-.1,0-.1-.3-.8-1.2-1.2-2.1-.9-.8.3-1.3,1.2-1,2h0Z"/>
        <path class="st3" d="M107.4,43.3s0,0,0-.1c-.5-.7-1.5-.9-2.3-.4-.7.5-.9,1.5-.4,2.2l1.4-.8-1.3.9c.3.4.8.7,1.3.7s0,0,.1,0l1.3-2.3s0,0,0-.1Z"/>
        <path class="st3" d="M92.1,3.5c.9,0,1.6-.7,1.6-1.6s-.7-1.6-1.6-1.6-1.6.7-1.6,1.6h0c0,1,.7,1.6,1.6,1.6h0Z"/>
        <path class="st3" d="M94.3,19.4c-.9.2-1.4,1.1-1.2,1.9,0,0,0,.1,0,.1.2.7.8,1.1,1.5,1.1s.3,0,.4,0c.9-.2,1.4-1.1,1.2-1.9-.2-.8-1.1-1.3-2-1.1h0Z"/>
        <path class="st3" d="M93,13.1c-.9.2-1.5,1-1.3,1.8l1.6-.2-1.6.3c.1.8.8,1.3,1.6,1.3s.2,0,.3,0c.9-.1,1.5-1,1.3-1.8,0,0,0-.1,0-.1-.2-.8-1-1.4-1.9-1.3h0Z"/>
        <path class="st3" d="M143.2,69.7c-.8-.3-1.8.1-2.1.9-.3.8.1,1.7,1,2,0,0,.1,0,.1,0,.2,0,.4,0,.5,0,.7,0,1.3-.4,1.5-1.1.3-.8-.2-1.7-1-2h0Z"/>
        <path class="st3" d="M123.9,63.5h0c.3.2.6.3.9.3.5,0,1-.2,1.3-.7.5-.7.3-1.7-.5-2.2,0,0-.1,0-.2,0l-2.4,1.2c0,.5.2,1.1.7,1.5h0Z"/>
        <path class="st3" d="M149.5,71.6s-.1,0-.1,0c-.9-.2-1.8.3-2,1.1s.3,1.7,1.2,1.9l.5-1.5-.4,1.5c.1,0,.3,0,.4,0,.7,0,1.4-.5,1.6-1.2.2-.8-.3-1.7-1.1-1.9h0Z"/>
        <path class="st3" d="M153.9,74.2c-.2.8.4,1.7,1.3,1.8l.4-1.5.2-1.6c-.9-.1-1.7.4-1.9,1.3h0Z"/>
        <path class="st3" d="M167.3,75.6c0,.9.8,1.6,1.7,1.6h0c.9,0,1.6-.7,1.6-1.6s-.8-1.6-1.7-1.6-1.6.7-1.6,1.6h0Z"/>
        <path class="st3" d="M131.3,64.4c-.8-.4-1.8-.2-2.2.6s-.2,1.7.6,2.1c0,0,.1,0,.1,0,.2.1.5.2.8.2.6,0,1.1-.3,1.4-.8.5-.7.1-1.7-.6-2.2h0Z"/>
        <path class="st3" d="M137.1,67.3c-.8-.4-1.8,0-2.2.7-.4.8,0,1.7.8,2.1,0,0,.1,0,.1,0,.2,0,.4.1.7.1.6,0,1.2-.3,1.5-.9.4-.8,0-1.7-.8-2.1h0Z"/>
        <path class="st3" d="M160.6,75.2c0,.9.6,1.6,1.5,1.7h0v-1.6c.1,0,.1-1.6.1-1.6-.9,0-1.6.6-1.7,1.4h0Z"/>
        <polygon class="st2" points="158.2 35.1 159.3 34.5 157.3 33.5 158.2 35.1"/>
        <polygon class="st2" points="135 10.9 134.2 12.4 136.5 13.6 135 10.9"/>
        <polygon class="st2" points="108.5 59.8 150.3 39 143.6 26.7 130.1 20 108.5 59.8"/>
        <path class="st2" d="M161.8-3.2c.7.7,1.5,1.2,2.2,1.7.4-.5.8-.9,1.4-1.3-.4-.7-1-1.4-1.7-2.1-.1-.1-.3-.2-.4-.4h-3.2c.4.7,1,1.4,1.7,2.1h0Z"/>
        <polygon class="st2" points="168.9 39.3 162.3 42.6 168.9 54.8 170.8 51.3 170.8 40.3 168.9 39.3"/>
        <path class="st2" d="M168.9-3.9c.2,0,.3,0,.4,0-.4-.4-.9-.7-1.5-1,0,.3,0,.7,0,1,.3,0,.7-.1,1.1-.1h0Z"/>
        <path class="st2" d="M152.3-1.6c1.4,1.3,3.1,2.2,5.1,2.4.5,0,.9.5.9,1.1s-.4,1-.9,1.1c-2,.3-3.7,1.1-5.1,2.4-3.6,3.4-3.6,9,0,12.4,1.7,1.7,4,2.6,6.5,2.6s4.7-.9,6.5-2.6c1.4-1.3,2.2-3,2.5-4.9,0-.5.5-.9,1.1-.9s1,.4,1.1.9c.1.9.4,1.7.8,2.5v-4c-.7-1.3-1-2.6-.8-3.9-.3,0-.7.1-1.1.1s-.7,0-1.1-.1c.2,2-.5,4.1-2.2,5.8-2.8,2.6-6.9,2.9-9.3.7-2.4-2.3-2.1-6.3.7-8.9,1.7-1.6,4-2.4,6-2.2,0-.3-.1-.7-.1-1s0-.7.1-1c-2,.2-4.3-.5-6-2.2-1.2-1.2-1.9-2.6-2.2-4h-4.8c.4,1.3,1.2,2.6,2.3,3.7h0Z"/>
        <path class="st2" d="M140,1.7l10.2,18.7,18.7,9.3,1.9-.9v-9.7c-.8-.8-1.4-1.6-1.9-2.6-.5,1-1.2,1.9-2.1,2.8-2.2,2.1-5,3.2-8,3.2s-5.9-1.1-8-3.2c-4.4-4.3-4.4-11.2,0-15.4.8-.8,1.8-1.5,2.9-2-1.1-.5-2-1.2-2.9-2-1.5-1.5-2.5-3.3-3-5.2h-4l-3.8,6.9h0Z"/>
        <polygon class="st2" points="126.5 -4.8 113 1.9 126.3 8.5 130 1.7 126.5 -4.8"/>
        <path class="st2" d="M159.2,11.2c1.2-.2,2.9-1.1,4.4-2.5.7-.7,1.3-1.4,1.7-2.1-.5-.4-1-.8-1.4-1.3-.7.4-1.5,1-2.2,1.7-1.5,1.5-2.5,3.1-2.6,4.3h0Z"/>
        <path class="st3" d="M102.4,0c-.7.4-1.2,1.1-1.2,1.9s.5,1.5,1.2,1.9l22.9,11.4-29,53.6c-.5.8-.3,1.8.4,2.5.7.6,1.7.8,2.6.4l56.2-28,11.6,21.3c.4.7,1.1,1.1,2,1.1s1.5-.4,1.9-1.1v-4l-1.7,3.1c0,.2-.4.2-.5,0l-12.5-22.9-57.9,28.8c-.1,0-.2,0-.3,0,0,0-.1-.2,0-.3l29.9-55.3-24.6-12.2c0,0-.2-.1-.2-.2s0-.2.2-.2l13.9-6.9h-4.2L102.4,0h0Z"/>
        <path class="st3" d="M155.9,40.7l-9.2-16.9-18.4-9.2-29.5,54.5,57.1-28.5h0ZM103.4,64.8l25.8-47.7,16.1,8,8,14.8-50,24.9Z"/>
        <polygon class="st3" points="170.8 35.2 170.8 33.9 169.5 34.5 170.8 35.2"/>
        <polygon class="st3" points="168.9 34.8 156.7 40.9 168.9 63.4 170.8 59.9 170.8 55.9 168.9 59.4 159.3 41.7 168.9 36.9 170.8 37.9 170.8 35.8 168.9 34.8"/>
        <polygon class="st3" points="135.3 1.7 147.1 23.4 168.9 34.2 170.8 33.3 170.8 31.2 168.9 32.1 148.6 22 137.5 1.7 141.3 -5.3 139.1 -5.3 135.3 1.7"/>
        <polygon class="st3" points="135 1.1 138.5 -5.3 136.3 -5.3 135 -2.9 133.7 -5.3 131.5 -5.3 135 1.1"/>
        <polygon class="st3" points="104 1.9 128.1 13.9 134.7 1.7 130.9 -5.3 128.7 -5.3 132.5 1.7 127.3 11.4 108.2 1.9 122.6 -5.3 118.4 -5.3 104 1.9"/>
        <path class="st3" d="M135,2.3l-6.4,11.9,17.7,8.8-11.3-20.7ZM131.2,13.3l3.8-7.1,6.7,12.3s-10.5-5.2-10.5-5.2Z"/>
        <path class="st3" d="M168.3,34.5l-20.7-10.3,8.8,16.3,11.9-5.9h0ZM152.1,28.6l12,6-6.9,3.4-5.1-9.4Z"/>
        <path class="st2" d="M104.2-3.3l-2.8,1.4c-1.4.7-2.3,2-2.4,3.5,0,0,0,.2,0,.3s0,.2,0,.3c0,1.5,1,2.8,2.4,3.5l2.8,1.4.9.5,7.3,3.7.8.4,5.8,2.9.7.4,2.5,1.3-1.2,2.3-.4.7-3,5.5-.4.8-3.8,7-.5.9-3.3,6.2-1.2,2.2-1.1,2-1.3,2.3-1.4,2.6-1.1,2.1-9.4,17.4c-.9,1.7-.6,3.6.8,5s3.5,1.6,5.2.8l18.1-9,2.2-1.1,2.7-1.4,2.4-1.2,2-1,2.2-1.1,6.4-3.2.9-.5,7.3-3.6.8-.4,5.7-2.9.7-.4,2.6-1.3,1.2,2.1.4.7,3,5.5.4.8,3.8,6.9.5.9,1.4,2.5c.7,1.3,2.1,2.2,3.7,2.3,0,0,.2,0,.3,0s.2,0,.3,0c.6,0,1.1-.2,1.6-.4v-2.8c-.4.7-1.1,1.1-1.9,1.1s-1.6-.4-2-1.1l-11.6-21.3-56.2,28c-.8.4-1.9.3-2.6-.4-.7-.7-.8-1.7-.4-2.5l29-53.6-22.9-11.4c-.7-.4-1.2-1.1-1.2-1.9s.5-1.5,1.2-1.9l10.6-5.3h-4.8l-3.1,1.5-.9.5h0Z"/>
        <polygon class="st2" points="137.5 1.7 148.6 22 168.9 32.1 170.8 31.2 170.8 28.8 168.9 29.7 150.2 20.4 140 1.7 143.8 -5.3 141.3 -5.3 137.5 1.7"/>
        <path class="st2" d="M135,6.3l-3.8,7.1,10.5,5.2s-6.7-12.3-6.7-12.3ZM136.5,13.6l-2.3-1.2.8-1.6,1.5,2.7h0Z"/>
        <polygon class="st2" points="168.9 36.9 159.3 41.7 168.9 59.4 170.8 55.9 170.8 51.3 168.9 54.8 162.3 42.6 168.9 39.3 170.8 40.3 170.8 37.9 168.9 36.9"/>
        <polygon class="st2" points="135 -2.9 136.3 -5.3 133.7 -5.3 135 -2.9"/>
        <path class="st2" d="M108.2,1.9l19.1,9.5,5.3-9.7-3.8-7h-6.2l-14.4,7.1h0ZM130,1.7l-3.7,6.8-13.3-6.6,13.5-6.7,3.6,6.5h0Z"/>
        <path class="st2" d="M164.1,34.5l-12-6,5.1,9.4,6.9-3.4ZM158.2,35.1l-.8-1.6,2,1-1.1.6h0Z"/>
        <path class="st2" d="M153.3,39.9l-8-14.8-16.1-8-25.8,47.7,50-24.9h0ZM130.1,20l13.5,6.7,6.7,12.3-41.8,20.8,21.6-39.8h0Z"/>
        <path class="st3" d="M150.8-.1c.8.8,1.8,1.5,2.9,2-1.1.5-2,1.2-2.9,2-4.4,4.3-4.4,11.2,0,15.4,2.2,2.1,5,3.2,8,3.2s5.9-1.1,8-3.2c.8-.8,1.5-1.7,2.1-2.8.5.9,1.1,1.8,1.9,2.6v-3.7c-.4-.8-.7-1.6-.8-2.5,0-.5-.5-.9-1.1-.9s-1,.4-1.1.9c-.3,1.9-1.2,3.6-2.5,4.9-1.7,1.7-4,2.6-6.5,2.6s-4.7-.9-6.5-2.6c-3.6-3.4-3.6-9,0-12.4,1.4-1.3,3.1-2.2,5.1-2.4.5,0,.9-.5.9-1.1s-.4-1-.9-1.1c-2-.3-3.7-1.1-5.1-2.4-1.1-1.1-1.9-2.3-2.3-3.7h-2.3c.5,1.9,1.5,3.7,3,5.2h0Z"/>
        <path class="st3" d="M163.7-4.9c.7.7,1.3,1.4,1.7,2.1.7-.5,1.5-.8,2.5-1,0-.3,0-.7,0-1-.6-.3-1.3-.4-2-.4h-2.6c.1.1.3.2.4.4Z"/>
        <path class="st3" d="M157-1.3c1.7,1.6,4,2.4,6,2.2.2-.9.5-1.7,1-2.4-.7-.4-1.5-1-2.2-1.7s-1.3-1.4-1.7-2.1h-5.3c.3,1.4,1,2.8,2.2,4Z"/>
        <path class="st3" d="M165.4,6.6c-.4.7-1,1.4-1.7,2.1-1.5,1.5-3.2,2.4-4.4,2.5.2-1.2,1.1-2.8,2.6-4.3.7-.7,1.5-1.2,2.2-1.7-.5-.7-.9-1.5-1-2.4-2-.2-4.3.5-6,2.2-2.8,2.6-3.1,6.6-.7,8.9,2.4,2.3,6.6,2,9.3-.7,1.7-1.6,2.5-3.8,2.2-5.8-.9-.2-1.7-.5-2.5-1h0Z"/>
        <path class="st3" d="M170,7.6c-.2,1.3.1,2.6.8,3.9v-4.1c-.3,0-.5.2-.8.2Z"/>
        <path class="st2" d="M168.9-3.9c-.4,0-.7,0-1.1.1-.9.2-1.7.5-2.5,1-.5.4-1,.8-1.4,1.3-.5.7-.9,1.5-1,2.4,0,.3-.1.7-.1,1s0,.7.1,1c.2.9.5,1.7,1,2.4.4.5.8.9,1.4,1.3.7.5,1.5.8,2.5,1,.3,0,.7.1,1.1.1s.7,0,1.1-.1c.3,0,.6-.1.8-.2v-3.1c-.5.4-1.2.6-1.9.6-1.7,0-3.1-1.4-3.1-3s1.4-3,3.1-3,1.4.2,1.9.6h0c0-1.4-.6-2.5-1.5-3.4-.2,0-.3,0-.4,0h0Z"/>
        <path class="st3" d="M168.9-1.1c-1.7,0-3.1,1.4-3.1,3s1.4,3,3.1,3,1.4-.2,1.9-.6V-.5c-.5-.4-1.2-.6-1.9-.6Z"/>
        <path class="st2" d="M103.3,1.7c0,0-.2.1-.2.2s0,.2.2.2l24.6,12.2-29.9,55.3c0,.1,0,.2,0,.3,0,0,.2.1.3,0l57.9-28.8,12.5,22.9c0,.2.4.2.5,0l1.7-3.1v-1.2l-1.9,3.5-12.2-22.5,12.2-6.1,1.9.9v-.6l-1.3-.6,1.3-.7v-.6l-1.9.9-21.8-10.9-11.8-21.7,3.8-7h-.6l-3.4,6.4-3.5-6.4h-.6l3.8,7-6.6,12.2L104,1.9l14.4-7.1h-1.2l-13.9,6.9h0ZM98.8,69.2l29.5-54.5,18.4,9.2,9.2,16.9-57.1,28.5h0ZM147.6,24.2l20.7,10.3-11.9,5.9-8.8-16.3h0ZM128.6,14.1l6.4-11.9,11.3,20.7s-17.7-8.8-17.7-8.8Z"/>
        <path class="st3" d="M85,84.9h-.3v1c0,0,.2,0,.3,0s.2,0,.3,0v-1h-.3Z"/>
        <path class="st3" d="M85,221.2h.3v-1.8c0,0-.2,0-.3,0s-.2,0-.3,0v1.8h.3Z"/>
        <path class="st3" d="M91.5,220.9l-.7-7.3-.5.9.6,6.4c.2,0,.4,0,.5,0h0Z"/>
        <path class="st3" d="M78.6,85.2l.6,6.6.5-.9-.5-5.7c-.2,0-.4,0-.5,0h0Z"/>
        <path class="st3" d="M72.4,86l2.5,13.6.4-.8-2.4-12.9c-.2,0-.4,0-.5,0Z"/>
        <path class="st3" d="M97.6,220.1l-2.6-14.2-.4.8,2.5,13.5c.2,0,.4,0,.5,0Z"/>
        <path class="st3" d="M103.7,218.8l-5.3-19-.4.7,5.1,18.5c.2,0,.3-.1.5-.1Z"/>
        <path class="st3" d="M66.4,87.3l5.2,18.5.4-.7-5-18c-.2,0-.3.1-.5.1h0Z"/>
        <path class="st3" d="M60.5,89.1l6.7,17.6.7.4-6.9-18.1c-.2,0-.3.1-.5.2Z"/>
        <path class="st3" d="M109.6,217l-6.7-17.6-.7-.4,6.9,18.1c.2,0,.3-.1.5-.2Z"/>
        <path class="st3" d="M54.8,91.4l5.9,12,.8.4-6.2-12.7c-.2,0-.3.1-.5.2h0Z"/>
        <path class="st3" d="M115.3,214.7l-5.9-12-.8-.4,6.1,12.7c.2,0,.3-.1.5-.2h0Z"/>
        <path class="st3" d="M49.3,94.2l3.1,5.2.9.5-3.5-5.9c-.2,0-.3.2-.5.3h0Z"/>
        <path class="st3" d="M120.8,211.9l-3.1-5.2-.9-.5,3.5,5.9c.2,0,.3-.2.5-.3h0Z"/>
        <path class="st3" d="M23.4,119.3l6.3,3.5-.5-.9-5.5-3.1c0,.2-.2.3-.3.5h0Z"/>
        <path class="st3" d="M146.6,186.9l-6.1-3.4.5.9,5.4,3c0-.2.2-.3.3-.5h0Z"/>
        <path class="st3" d="M149.5,181.6l-13.2-5.9.4.8,12.5,5.6c0-.2.2-.3.2-.5h0Z"/>
        <path class="st3" d="M20.6,124.5l13.4,6-.4-.8-12.7-5.7c0,.2-.2.3-.2.5Z"/>
        <path class="st3" d="M151.9,176.1l-18.9-6.6.4.7,18.3,6.4c0-.2.1-.3.2-.5Z"/>
        <path class="st3" d="M18.2,130l19.1,6.7-.4-.7-18.5-6.5c0,.2-.1.3-.2.5Z"/>
        <path class="st3" d="M153.7,170.4l-18.7-4.8-.7.4,19.3,5c0-.2.1-.3.2-.5h0Z"/>
        <path class="st3" d="M16.4,135.7l18.7,4.8.7-.4-19.3-5c0,.2-.1.3-.2.5Z"/>
        <path class="st3" d="M15.1,141.5l13.5,2.3.8-.4-14.2-2.4c0,.2,0,.3,0,.5Z"/>
        <path class="st3" d="M155,164.6l-13.5-2.3-.8.4,14.2,2.4c0-.2,0-.3,0-.5h0Z"/>
        <path class="st3" d="M155.8,158.7l-6-.5-.9.5,6.9.6c0-.2,0-.4,0-.5h0Z"/>
        <path class="st3" d="M14.3,147.4l6,.5.9-.5-6.9-.6c0,.2,0,.4,0,.5h0Z"/>
        <path class="st3" d="M14,153.1v.3h1.1c0,0,0-.2,0-.3s0-.2,0-.3h-1.1v.3Z"/>
        <path class="st3" d="M156,153.1v-.3h-1.1c0,0,0,.2,0,.3s0,.2,0,.3h1.1v-.3Z"/>
        <path class="st3" d="M14.3,159.3l6.9-.6-.9-.5-6,.5c0,.2,0,.4,0,.5h0Z"/>
        <path class="st3" d="M155.7,146.9l-6.9.6.9.5,6-.5c0-.2,0-.4,0-.5h0Z"/>
        <path class="st3" d="M15.2,165.2l14.2-2.4-.8-.4-13.5,2.3c0,.2,0,.3,0,.5Z"/>
        <path class="st3" d="M154.9,141l-14.2,2.4.8.4,13.5-2.3c0-.2,0-.3,0-.5Z"/>
        <path class="st3" d="M16.5,171l19.3-5-.7-.4-18.7,4.8c0,.2.1.3.2.5Z"/>
        <path class="st3" d="M153.5,135.2l-19.3,5,.7.4,18.7-4.8c0-.2-.1-.3-.2-.5h0Z"/>
        <path class="st3" d="M151.7,129.5l-18.6,6.5-.4.7,19.1-6.7c0-.2-.1-.3-.2-.5h0Z"/>
        <path class="st3" d="M18.4,176.6l18.3-6.4.4-.7-18.9,6.6c0,.2.1.3.2.5h0Z"/>
        <path class="st3" d="M20.8,182.1l12.5-5.6.4-.8-13.2,5.9c0,.2.2.3.2.5h0Z"/>
        <path class="st3" d="M149.3,124l-12.7,5.7-.4.8,13.4-6c0-.2-.2-.3-.2-.5h0Z"/>
        <path class="st3" d="M146.4,118.8l-5.6,3.1-.5.9,6.3-3.5c0-.2-.2-.3-.3-.5h0Z"/>
        <path class="st3" d="M23.7,187.4l5.4-3,.5-.9-6.1,3.4c0,.2.2.3.3.5h0Z"/>
        <path class="st3" d="M49.8,212.2l3.6-5.9-.9.5-3.1,5.2c.2,0,.3.2.5.3h0Z"/>
        <path class="st3" d="M120.3,94l-3.5,5.9.9-.5,3.1-5.1c-.2,0-.3-.2-.5-.3Z"/>
        <path class="st3" d="M114.8,91.2l-6.1,12.6.8-.4,5.8-12c-.2,0-.3-.1-.5-.2Z"/>
        <path class="st3" d="M55.3,214.9l6.2-12.7-.8.4-5.9,12.1c.2,0,.3.1.5.2h0Z"/>
        <path class="st3" d="M109.1,89l-6.9,18.1.7-.4,6.7-17.6c-.2,0-.3-.1-.5-.2h0Z"/>
        <path class="st3" d="M61,217.2l6.9-18.2-.7.4-6.7,17.6c.2,0,.3.1.5.2h0Z"/>
        <path class="st3" d="M103.2,87.2l-5,18,.4.7,5.2-18.5c-.2,0-.3-.1-.5-.1Z"/>
        <path class="st3" d="M66.9,218.9l5.1-18.4-.4-.7-5.3,19c.2,0,.3.1.5.1h0Z"/>
        <path class="st3" d="M73,220.2l2.5-13.4-.4-.8-2.6,14.1c.2,0,.4,0,.5,0Z"/>
        <path class="st3" d="M97.1,85.9l-2.4,12.9.4.8,2.5-13.6c-.2,0-.4,0-.5,0Z"/>
        <path class="st3" d="M79.1,220.9l.6-6.4-.5-.9-.7,7.2c.2,0,.4,0,.5,0h0Z"/>
        <path class="st3" d="M91,85.2l-.5,5.8.5.9.6-6.6c-.2,0-.4,0-.5,0h0Z"/>
        <path class="st3" d="M145.4,113.4l-1.2,2.1c.7,1.1,1.4,2.2,2.1,3.3,0,.2.2.3.3.5.9,1.6,1.8,3.2,2.6,4.8,0,.2.2.3.2.5.8,1.6,1.5,3.3,2.2,5,0,.2.1.3.2.5.6,1.7,1.2,3.4,1.7,5.2,0,.2.1.3.2.5.5,1.7.9,3.5,1.2,5.3,0,.2,0,.3,0,.5.3,1.8.6,3.6.7,5.4,0,.2,0,.4,0,.5.2,1.8.3,3.6.3,5.4v.5c0,1.8-.1,3.6-.3,5.4,0,.2,0,.4,0,.5-.2,1.8-.4,3.6-.7,5.4,0,.2,0,.3,0,.5-.3,1.8-.7,3.6-1.2,5.3,0,.2-.1.3-.2.5-.5,1.7-1.1,3.5-1.7,5.2,0,.2-.1.3-.2.5-.7,1.7-1.4,3.4-2.2,5,0,.2-.2.3-.2.5-.8,1.6-1.7,3.2-2.6,4.8,0,.2-.2.3-.3.5-.7,1.1-1.3,2.1-2,3.2l1.2,2.2c8.1-11.3,12.8-24.9,12.8-39.6s-4.7-28.4-12.8-39.7h0Z"/>
        <path class="st3" d="M43.8,95.1l2.2,1.1c1.1-.7,2.2-1.3,3.3-2,.2,0,.3-.2.5-.3,1.6-.9,3.3-1.7,5-2.5.2,0,.3-.1.5-.2,1.7-.8,3.4-1.5,5.2-2.1.2,0,.3-.1.5-.2,1.8-.6,3.6-1.2,5.4-1.6.2,0,.3-.1.5-.1,1.8-.5,3.6-.8,5.5-1.2.2,0,.4,0,.5,0,1.8-.3,3.7-.5,5.6-.7.2,0,.4,0,.5,0,1.9-.1,3.7-.2,5.6-.2h.6c1.9,0,3.8.1,5.6.2.2,0,.4,0,.5,0,1.9.2,3.7.4,5.6.7.2,0,.4,0,.5,0,1.9.3,3.7.7,5.5,1.2.2,0,.3.1.5.1,1.8.5,3.6,1,5.4,1.6.2,0,.3.1.5.2,1.8.6,3.5,1.3,5.2,2.1.2,0,.3.1.5.2,1.7.8,3.4,1.6,5,2.5.2,0,.3.2.5.3,1.1.6,2.2,1.3,3.3,2l2.2-1.1c-11.8-7.7-26-12.3-41.3-12.3s-29.5,4.5-41.3,12.3h0Z"/>
        <path class="st3" d="M126.3,211.1l-2.2-1.1c-1.1.7-2.2,1.3-3.3,2-.2,0-.3.2-.5.3-1.6.9-3.3,1.7-5,2.5-.2,0-.3.1-.5.2-1.7.8-3.4,1.5-5.2,2.1-.2,0-.3.1-.5.2-1.8.6-3.6,1.2-5.4,1.6-.2,0-.3.1-.5.1-1.8.5-3.6.8-5.5,1.2-.2,0-.4,0-.5,0-1.8.3-3.7.5-5.6.7-.2,0-.4,0-.5,0-1.9.1-3.7.2-5.6.2h-.6c-1.9,0-3.8-.1-5.6-.2-.2,0-.4,0-.5,0-1.9-.2-3.7-.4-5.6-.7-.2,0-.4,0-.5,0-1.9-.3-3.7-.7-5.5-1.2-.2,0-.3-.1-.5-.1-1.8-.5-3.6-1-5.4-1.6-.2,0-.3-.1-.5-.2-1.8-.6-3.5-1.3-5.2-2.1-.2,0-.3-.1-.5-.2-1.7-.8-3.4-1.6-5-2.5-.2,0-.3-.2-.5-.3-1.1-.6-2.2-1.3-3.3-2l-2.2,1.1c11.8,7.7,26,12.3,41.3,12.3s29.5-4.5,41.3-12.3h0Z"/>
        <path class="st3" d="M24.6,192.7l1.2-2.2c-.7-1-1.4-2.1-2-3.2,0-.2-.2-.3-.3-.5-.9-1.6-1.8-3.2-2.6-4.8,0-.2-.2-.3-.2-.5-.8-1.6-1.5-3.3-2.2-5,0-.2-.1-.3-.2-.5-.6-1.7-1.2-3.4-1.7-5.2,0-.2-.1-.3-.2-.5-.5-1.7-.9-3.5-1.2-5.3,0-.2,0-.3,0-.5-.3-1.8-.6-3.6-.7-5.4,0-.2,0-.4,0-.5-.2-1.8-.3-3.6-.3-5.4v-.5c0-1.8.1-3.6.3-5.4,0-.2,0-.4,0-.5.2-1.8.4-3.6.7-5.4,0-.2,0-.3,0-.5.3-1.8.7-3.6,1.2-5.3,0-.2.1-.3.2-.5.5-1.8,1.1-3.5,1.7-5.2,0-.2.1-.3.2-.5.7-1.7,1.4-3.4,2.2-5,0-.2.2-.3.2-.5.8-1.6,1.7-3.2,2.6-4.8,0-.2.2-.3.3-.5.7-1.1,1.4-2.2,2.1-3.3l-1.2-2.1c-8.1,11.3-12.8,25-12.8,39.7s4.7,28.3,12.8,39.6h0Z"/>
        <path class="st3" d="M4.6,153.1c0-17.5,6.1-33.6,16.3-46.5l-1.1-2.1c-10.9,13.4-17.4,30.3-17.4,48.6s6.5,35.1,17.4,48.5l1.1-2.1c-10.2-12.9-16.3-29-16.3-46.5h0Z"/>
        <path class="st3" d="M165.4,153.1c0,17.4-6.1,33.5-16.3,46.5l1.1,2.1c10.9-13.4,17.4-30.3,17.4-48.5s-6.5-35.1-17.4-48.6l-1.1,2.1c10.2,12.9,16.3,29.1,16.3,46.5h0Z"/>
        <path class="st3" d="M85,75.9c18.2,0,34.9,5.8,48.4,15.6l2.2-1.1c-14-10.4-31.5-16.7-50.6-16.7s-36.6,6.2-50.6,16.7l2.2,1.1c13.5-9.8,30.3-15.6,48.4-15.6Z"/>
        <path class="st3" d="M133.5,214.6c-13.5,9.8-30.3,15.6-48.4,15.6s-34.9-5.8-48.4-15.6l-2.2,1.1c14,10.4,31.5,16.7,50.6,16.7s36.6-6.2,50.6-16.7l-2.2-1.1h0Z"/>
        <line class="st1" x1="98.2" y1="80.4" x2="98.5" y2="78.9"/>
        <path class="st3" d="M146.6,111.6c.3.4.8.7,1.3.7s.7,0,.9-.3c.7-.5.9-1.5.4-2.2l-1.4.8,1.3-.9c-.3-.5-.9-.7-1.4-.6l-1.3,2.3s0,0,0,0c0,0,0,0,0,.1h0Z"/>
        <path class="st3" d="M12.3,129.4c.2,0,.3,0,.5,0,.7,0,1.3-.4,1.6-1.1.3-.8-.1-1.7-1-2-.8-.3-1.8.1-2.1.9,0,0,0,.1,0,.1-.3.8.2,1.7,1,2Z"/>
        <path class="st3" d="M122.7,215.5h-.1c-.8.5-1,1.5-.6,2.2.3.5.8.8,1.4.8s.6,0,.8-.2l-.7-1.4.8,1.4c.8-.4,1-1.4.6-2.1s-1.4-1-2.2-.6h0Z"/>
        <path class="st3" d="M11,140.5c.2-.8-.4-1.7-1.3-1.8-.9-.1-1.7.4-1.9,1.3l1.6.4,1.6.2h0Z"/>
        <path class="st3" d="M116.8,218.5c-.8.4-1.2,1.3-.8,2.1.3.6.9.9,1.5.9s.5,0,.7-.1c0,0,.1,0,.1,0,.8-.4,1.1-1.3.7-2-.4-.8-1.4-1.1-2.2-.7h0Z"/>
        <path class="st3" d="M149.3,196.3l-1.3-1,1.3.9c.5-.7.3-1.7-.4-2.2s-1.7-.3-2.3.4c0,0,0,.1,0,.1,0,0,0,0,0,0l1.3,2.3s0,0,.1,0c.5,0,1-.2,1.4-.7h0Z"/>
        <path class="st3" d="M10.4,135.6c.1,0,.3,0,.4,0,.7,0,1.4-.5,1.6-1.2,0,0,0-.1,0-.1.2-.8-.3-1.7-1.2-1.9s-1.8.3-2,1.1l1.5.5-1.6-.4c-.2.8.3,1.7,1.1,1.9h0Z"/>
        <path class="st3" d="M160.4,138.5c-.9.1-1.5,1-1.3,1.8,0,0,0,.1,0,.1.2.7.8,1.3,1.6,1.3s.2,0,.3,0c.9-.2,1.5-1,1.3-1.8l-1.6.2,1.6-.3c-.2-.8-1-1.4-1.9-1.3h0Z"/>
        <path class="st3" d="M159.6,135.4c.9-.2,1.4-1.1,1.2-1.9,0,0,0-.1,0-.1-.2-.8-1.1-1.3-2-1.1-.9.2-1.4,1.1-1.2,1.9.2.7.8,1.2,1.6,1.2s.3,0,.4,0h0Z"/>
        <path class="st3" d="M152.4,188.6c-.8-.4-1.8-.1-2.2.6-.5.7-.2,1.7.6,2.1.3.1.5.2.8.2.6,0,1.1-.3,1.4-.8,0,0,0-.1,0-.1.4-.7.2-1.7-.6-2.1h0Z"/>
        <path class="st3" d="M158.7,127.2l-1.6.5,1.5-.5c-.3-.8-1.2-1.2-2.1-.9s-1.3,1.2-1,2h0c.2.7.9,1.1,1.5,1.1s.4,0,.6-.1c.8-.3,1.3-1.2,1-2h0Z"/>
        <path class="st3" d="M159.9,146.7c0,.8.8,1.4,1.6,1.4h.1c.9,0,1.6-.8,1.5-1.7h0c0-1-.9-1.6-1.8-1.5-.9,0-1.5.9-1.5,1.7h0Z"/>
        <path class="st3" d="M8.4,148.3h.1c.8,0,1.6-.7,1.6-1.5,0-.9-.6-1.6-1.5-1.7-.9,0-1.7.6-1.8,1.4h0c0,1,.6,1.7,1.5,1.8h0Z"/>
        <path class="st3" d="M152.9,115.3l-1.5.7,1.4-.8c-.4-.7-1.4-1-2.2-.6-.8.4-1,1.4-.6,2.1,0,0,0,.1,0,.1.3.5.8.8,1.4.8s.6,0,.8-.2c.8-.4,1-1.4.6-2.1h0Z"/>
        <path class="st3" d="M156.1,121.2l-1.5.6,1.5-.7c-.4-.8-1.4-1.1-2.2-.8s-1.2,1.3-.8,2.1c0,0,0,.1,0,.1.3.6.9.9,1.5.9s.5,0,.7-.2c.8-.4,1.2-1.3.8-2.1h0Z"/>
        <path class="st3" d="M59.3,220.9c-.8-.3-1.8.1-2.1.9-.3.8.1,1.7,1,2,0,0,.1,0,.1,0,.2,0,.4,0,.5,0,.7,0,1.3-.4,1.5-1.1.3-.8-.2-1.7-1-2Z"/>
        <path class="st3" d="M155.3,182.8c-.8-.4-1.8,0-2.2.8s0,1.7.8,2.1c.2.1.5.1.7.1.6,0,1.2-.3,1.5-.9h0c.4-.9,0-1.8-.8-2.1h0Z"/>
        <path class="st3" d="M53.3,218.5s-.1,0-.1,0c-.8-.4-1.8,0-2.2.8-.4.8,0,1.7.8,2.1l.8-1.4-.7,1.4c.2.1.5.2.7.2.6,0,1.2-.3,1.5-.9.4-.8,0-1.7-.8-2.1h0Z"/>
        <path class="st3" d="M65.6,222.8c-.9-.2-1.8.2-2,1.1-.2.8.3,1.7,1.1,1.9,0,0,.1,0,.2,0,.1,0,.3,0,.4,0,.7,0,1.3-.5,1.5-1.2.2-.8-.3-1.7-1.2-1.9h0Z"/>
        <path class="st3" d="M72.1,224.1s-.1,0-.2,0c-.9-.1-1.7.4-1.9,1.3-.1.8.5,1.7,1.4,1.8l.4-1.5-.3,1.5c.1,0,.2,0,.3,0,.8,0,1.5-.5,1.6-1.3.2-.8-.4-1.7-1.3-1.8h0Z"/>
        <path class="st3" d="M47.4,215.5c-.8-.4-1.8-.2-2.2.6s-.2,1.7.6,2.1h0c.2.2.5.3.8.3.6,0,1.1-.3,1.4-.8.4-.7.1-1.7-.7-2.2h0Z"/>
        <path class="st3" d="M128.1,212.2c-.7.5-.9,1.5-.3,2.2.3.4.8.6,1.3.6s.7-.1,1-.3l-.9-1.3.9,1.3c.5-.3.8-.9.7-1.5l-2.4-1.2s-.1,0-.2,0c0,0-.1,0-.1,0h0Z"/>
        <path class="st3" d="M40.1,214.7s0,0,0,0c.3.2.6.3.9.3.5,0,1-.2,1.4-.7.5-.7.3-1.7-.5-2.2,0,0,0,0-.1,0l-2.4,1.2c0,.6.2,1.2.7,1.5h0Z"/>
        <path class="st3" d="M8.2,154.7c.9,0,1.6-.7,1.6-1.6s-.7-1.6-1.6-1.6-1.6.7-1.6,1.6h0c0,1,.7,1.6,1.6,1.6h0Z"/>
        <path class="st3" d="M78.6,224.9s-.1,0-.2,0c-.9,0-1.7.6-1.7,1.5,0,.9.6,1.6,1.5,1.7l.2-1.6-.2,1.6h.2c.8,0,1.5-.6,1.6-1.4,0-.9-.6-1.6-1.5-1.7h0Z"/>
        <path class="st3" d="M98.1,224.1c-.9.1-1.5.9-1.4,1.8.1.8.8,1.3,1.6,1.3s.2,0,.3,0c0,0,.1,0,.2,0,.9-.2,1.4-.9,1.2-1.8-.2-.8-1-1.4-1.9-1.3h0Z"/>
        <path class="st3" d="M110.8,220.9s-.1,0-.1,0c-.8.3-1.3,1.2-1,2,.2.6.9,1,1.5,1s.4,0,.6-.1l-.5-1.5.6,1.5c.8-.3,1.3-1.2,1-2s-1.2-1.2-2.1-.9h0Z"/>
        <path class="st3" d="M104.6,222.8s-.1,0-.2,0c-.9.2-1.4,1.1-1.1,1.9.2.7.9,1.1,1.6,1.1s.3,0,.4,0l-.3-1.5.4,1.5c.9-.2,1.4-1.1,1.2-1.9-.2-.8-1.1-1.3-2-1.1h0Z"/>
        <path class="st3" d="M85,225.2c-.9,0-1.6.7-1.6,1.6s.8,1.6,1.7,1.6h0c.9,0,1.6-.7,1.6-1.6s-.8-1.6-1.7-1.6h0Z"/>
        <path class="st3" d="M91.6,224.9c-.9,0-1.6.8-1.5,1.7,0,.8.8,1.5,1.6,1.5h.1s.1,0,.2,0c.9,0,1.5-.8,1.4-1.7s-.9-1.5-1.8-1.4h0Z"/>
        <path class="st3" d="M71.3,78.9l.2,1.6-.3-1.5c-.9.1-1.5,1-1.3,1.8.1.8.8,1.3,1.6,1.3s.2,0,.3,0c0,0,.1,0,.1,0,.9-.2,1.5-1,1.3-1.8-.2-.8-1-1.4-1.9-1.3h0Z"/>
        <path class="st3" d="M21.2,194c-.7.5-.9,1.5-.4,2.2,0,0,0,.1,0,.1.3.4.8.6,1.3.6s.1,0,.2,0l1.2-2.3c0,0,0-.1,0-.2-.5-.7-1.5-.9-2.3-.4Z"/>
        <path class="st3" d="M78.2,78.1s-.1,0-.1,0c-.9,0-1.5.8-1.4,1.7,0,.8.8,1.4,1.7,1.4h.1c.9,0,1.6-.8,1.5-1.7s-.8-1.5-1.7-1.4h0Z"/>
        <path class="st3" d="M20.8,109.9h0c-.5.8-.3,1.7.4,2.2.3.2.6.3.9.3.5,0,1.1-.3,1.4-.7,0,0,0-.2.1-.3l-1.2-2.1c-.6-.1-1.3.1-1.6.6Z"/>
        <path class="st3" d="M13.9,184.9l1.5-.6-1.5.7c.3.6.9.9,1.5.9s.5,0,.7-.1c.8-.4,1.2-1.3.8-2.1h0c-.4-.9-1.4-1.2-2.2-.8-.8.4-1.2,1.3-.8,2.1h0Z"/>
        <path class="st3" d="M64.7,80.4s-.1,0-.1,0c-.9.2-1.3,1.1-1.1,1.9.2.7.9,1.2,1.6,1.2s.3,0,.4,0c.9-.2,1.4-1.1,1.2-1.9-.2-.8-1.1-1.3-2-1.1h0Z"/>
        <path class="st3" d="M17.1,190.7l1.4-.7-1.4.8c.3.5.8.8,1.4.8s.5,0,.8-.2c.8-.4,1-1.4.6-2.1,0,0,0-.1,0-.1-.5-.7-1.5-1-2.2-.5-.8.4-1,1.4-.5,2.1h0Z"/>
        <path class="st3" d="M10.4,170.6c-.9.2-1.4,1.1-1.2,1.9h0c.2.8.8,1.2,1.5,1.2s.3,0,.4,0c.9-.2,1.4-1.1,1.1-2-.2-.8-1.1-1.3-2-1.1h0Z"/>
        <path class="st3" d="M9.7,167.5c.9-.1,1.5-1,1.3-1.8,0,0,0-.1,0-.1-.2-.8-1-1.4-1.9-1.2s-1.5,1-1.3,1.8l1.6-.2-1.6.3c.1.8.8,1.3,1.6,1.3s.2,0,.3,0h0Z"/>
        <path class="st3" d="M8.7,161.1c.9,0,1.5-.9,1.5-1.7s-.8-1.5-1.7-1.4c-.9,0-1.6.8-1.5,1.7,0,0,0,.1,0,.1,0,.8.8,1.4,1.6,1.4h.2Z"/>
        <path class="st3" d="M11.3,178.8h0c.2.7.8,1.1,1.5,1.1s.4,0,.6-.1c.8-.3,1.3-1.2,1-2s-1.2-1.2-2.1-.9-1.3,1.2-1,2Z"/>
        <path class="st3" d="M106.4,82.2c.2-.8-.3-1.7-1.2-1.9h0s-.4,1.5-.4,1.5l-.3,1.5c.1,0,.3,0,.4,0,.7,0,1.4-.5,1.5-1.2h0Z"/>
        <path class="st3" d="M110.7,85.2c.2,0,.4,0,.5,0,.7,0,1.3-.4,1.5-1,.3-.8-.1-1.7-1-2h-.1c-.8-.3-1.7.1-2,.9s.2,1.7,1,2Z"/>
        <path class="st3" d="M122.5,90.5c.3.1.5.2.8.2.6,0,1.1-.3,1.4-.8.5-.7.2-1.7-.6-2.1,0,0-.1,0-.1,0-.8-.4-1.7-.1-2.2.6s-.1,1.7.6,2.2h0Z"/>
        <path class="st3" d="M157.8,176.8c-.8-.3-1.8.1-2.1.9h0c-.3.9.1,1.8,1,2.1.2,0,.4,0,.5,0,.7,0,1.3-.4,1.5-1l-1.5-.6,1.5.5c.3-.8-.1-1.7-1-2h0Z"/>
        <path class="st3" d="M99.9,80.7c.2-.8-.4-1.7-1.3-1.8l-.4,1.5-.2,1.6c0,0,.2,0,.3,0,.8,0,1.5-.5,1.6-1.3h0Z"/>
        <path class="st3" d="M84.9,77.8c-.9,0-1.6.7-1.6,1.6s.8,1.6,1.7,1.6,1.6-.7,1.6-1.6-.7-1.6-1.6-1.6h-.1Z"/>
        <path class="st3" d="M91.5,81.2h.2c.8,0,1.5-.6,1.6-1.4,0-.9-.6-1.6-1.5-1.7h-.1c-.9,0-1.6.6-1.7,1.4s.6,1.6,1.5,1.7h0Z"/>
        <path class="st3" d="M116.7,87.6c.2.1.5.2.7.2.6,0,1.2-.3,1.5-.9.4-.8,0-1.7-.8-2.1,0,0-.1,0-.1,0-.8-.4-1.7,0-2.1.8-.4.8,0,1.7.8,2.1h0Z"/>
        <path class="st3" d="M45.8,87.9l.7,1.4-.8-1.4c-.8.4-1,1.4-.6,2.1.3.5.8.8,1.4.8s.5,0,.8-.2c0,0,.1,0,.1,0,.8-.4,1-1.4.6-2.1-.5-.7-1.5-1-2.2-.5Z"/>
        <path class="st3" d="M41.9,94c.7-.5.9-1.5.4-2.2-.5-.7-1.5-.9-2.3-.4l.8,1.3-.9-1.3c-.5.3-.7.8-.7,1.4l2.5,1.2s0,0,0,0c0,0,0,0,.1,0h0Z"/>
        <path class="st3" d="M130,91.4h0c-.7-.5-1.7-.3-2.2.4-.5.7-.3,1.7.5,2.2,0,0,.2,0,.3.1l2.3-1.1c.1-.6-.1-1.2-.7-1.6Z"/>
        <path class="st3" d="M163.5,152.9h0c0,0,0,0,0,0,0-.9-.7-1.6-1.6-1.6s-1.6.7-1.6,1.6h0v.2h0c0,1,.7,1.7,1.6,1.7s1.6-.7,1.6-1.6v-.2h0c0,0,0,0,0,0Z"/>
        <path class="st3" d="M17.7,117.6c.2.1.5.2.8.2.6,0,1.2-.3,1.5-.8.5-.7.2-1.7-.6-2.1-.8-.4-1.8-.2-2.2.6,0,0,0,.1,0,.1-.4.7-.2,1.7.6,2.1h0Z"/>
        <path class="st3" d="M161.7,157.9c-.9,0-1.7.5-1.8,1.4h0c0,1,.6,1.7,1.5,1.8h.1c.8,0,1.6-.6,1.6-1.4l-1.6-.2h1.6c0-.7-.6-1.5-1.5-1.6Z"/>
        <path class="st3" d="M159.7,170.6c-.9-.2-1.8.3-2,1.1,0,0,0,.1,0,.1-.2.8.3,1.7,1.2,1.9.1,0,.3,0,.4,0,.7,0,1.4-.5,1.6-1.2l-1.5-.5,1.6.4c.2-.8-.3-1.7-1.1-1.9h0Z"/>
        <path class="st3" d="M161,164.4c-.9-.1-1.7.5-1.9,1.3-.2.8.4,1.7,1.3,1.8,0,0,.2,0,.3,0,.8,0,1.5-.5,1.6-1.3h0c.2-1-.5-1.7-1.3-1.9h0Z"/>
        <path class="st3" d="M14.7,123.4c.2.1.4.1.7.1.6,0,1.2-.4,1.5-.9.4-.8,0-1.7-.8-2.1-.8-.4-1.8,0-2.2.7,0,0,0,.1,0,.1-.4.8,0,1.7.8,2h0Z"/>
        <path class="st3" d="M51.8,84.9l.6,1.5-.7-1.4c-.8.4-1.2,1.3-.8,2.1.3.6.9.9,1.5.9s.5,0,.7-.1h.1c.8-.4,1.2-1.4.8-2.1-.4-.8-1.4-1.1-2.2-.7h0Z"/>
        <path class="st3" d="M58.2,82.3s-.1,0-.1,0c-.8.3-1.2,1.2-.9,2,.2.6.9,1,1.6,1s.4,0,.6-.1c.8-.3,1.3-1.2,1-2s-1.2-1.2-2.1-.9h0Z"/>
        <polygon class="st2" points="85 206 91.7 193.8 85 190.5 78.4 193.8 85 206"/>
        <polygon class="st2" points="50.4 142.4 51.1 143.7 52.3 141.5 50.4 142.4"/>
        <polygon class="st2" points="24.7 95.2 46.3 134.9 59.4 128.4 66.2 115.8 24.7 95.2"/>
        <polygon class="st2" points="96.6 184.7 94.6 185.7 95.8 186.3 96.6 184.7"/>
        <polygon class="st2" points="145.4 95.2 103.9 115.8 110.7 128.4 123.7 134.9 145.4 95.2"/>
        <polygon class="st2" points="85 99.4 78.1 112.2 85 115.6 92 112.2 85 99.4"/>
        <polygon class="st2" points="51.1 162.1 50.3 163.6 52.6 164.8 51.1 162.1"/>
        <polygon class="st2" points="75.4 120.4 74 119.7 73 121.6 75.4 120.4"/>
        <polygon class="st2" points="145.4 211 123.9 171.2 110.3 177.9 103.6 190.2 145.4 211"/>
        <polygon class="st2" points="94.6 120.4 97.1 121.6 96 119.7 94.6 120.4"/>
        <polygon class="st2" points="119.6 142.4 117.8 141.5 119 143.7 119.6 142.4"/>
        <polygon class="st2" points="75.4 185.7 73.5 184.7 74.3 186.3 75.4 185.7"/>
        <polygon class="st2" points="24.7 211 66.4 190.2 59.8 177.9 46.2 171.2 24.7 211"/>
        <path class="st2" d="M94.7,162.4c-.2-1.2-1.1-2.8-2.6-4.3s-1.5-1.2-2.2-1.7c-.4.5-.8.9-1.4,1.3.4.7,1,1.4,1.7,2.1,1.5,1.5,3.2,2.4,4.4,2.5h0Z"/>
        <path class="st2" d="M81.5,148.4c-.4-.7-1-1.4-1.7-2.1-1.5-1.5-3.2-2.4-4.4-2.5.2,1.2,1.1,2.8,2.6,4.3s1.5,1.2,2.2,1.7c.4-.5.8-.9,1.4-1.3h0Z"/>
        <polygon class="st2" points="119.8 163.6 118.9 162.1 117.4 164.8 119.8 163.6"/>
        <path class="st2" d="M73.5,154.1c-2,.3-3.7,1.1-5.1,2.4-3.6,3.4-3.6,9,0,12.4,1.7,1.7,4,2.6,6.5,2.6s4.7-.9,6.5-2.6,2.2-3,2.5-4.9c0-.5.5-.9,1.1-.9h0c.5,0,1,.4,1.1.9.3,1.9,1.2,3.6,2.5,4.9,1.7,1.7,4,2.6,6.5,2.6s4.7-.9,6.5-2.6c3.6-3.4,3.6-9,0-12.4-1.4-1.3-3.1-2.2-5.1-2.4-.5,0-.9-.5-.9-1.1s.4-1,.9-1.1c2-.3,3.7-1.1,5.1-2.4,3.6-3.4,3.6-9,0-12.4-1.7-1.7-4-2.6-6.5-2.6s-4.7.9-6.5,2.6c-1.4,1.3-2.3,3-2.5,4.9,0,.5-.5.9-1.1.9h0c-.5,0-1-.4-1.1-.9-.3-1.9-1.2-3.6-2.5-4.9-1.7-1.7-4-2.6-6.5-2.6s-4.7.9-6.5,2.6c-1.7,1.7-2.7,3.9-2.7,6.2s1,4.6,2.7,6.2c1.4,1.3,3.1,2.2,5.1,2.4.5,0,.9.5.9,1.1s-.4,1-.9,1.1ZM73.1,149.9c-2.8-2.6-3.1-6.6-.7-8.9,2.4-2.3,6.6-2,9.3.6,1.7,1.6,2.5,3.8,2.2,5.8.3,0,.7-.1,1.1-.1s.7,0,1.1.1c-.2-2,.5-4.1,2.2-5.8,2.8-2.6,6.9-2.9,9.3-.7,2.4,2.3,2.1,6.3-.7,8.9-1.7,1.6-4,2.4-6,2.1,0,.3.1.7.1,1s0,.7-.1,1c2-.2,4.3.5,6,2.2,2.8,2.6,3.1,6.6.7,8.9-2.4,2.3-6.6,2-9.3-.7-1.7-1.6-2.5-3.8-2.2-5.8-.3,0-.7.1-1.1.1s-.7,0-1.1-.1c.2,2-.5,4.1-2.2,5.8-2.8,2.6-6.9,2.9-9.3.7-2.4-2.3-2.1-6.3.7-8.9,1.7-1.6,4-2.4,6-2.1,0-.3-.1-.7-.1-1s0-.7.1-1c-2,.2-4.3-.5-6-2.1h0Z"/>
        <path class="st2" d="M66.3,171.6l18.7,9.3,18.7-9.3,10.2-18.8-9.8-18.1-19.1-9.5-19.1,9.5-9.8,18.1,10.2,18.7h0ZM66.9,151.1c-2.1-2.1-3.3-4.8-3.3-7.7s1.2-5.7,3.3-7.7c2.1-2.1,5-3.2,8-3.2s5.9,1.1,8,3.2c.8.8,1.5,1.7,2.1,2.8.5-1,1.2-1.9,2.1-2.8,2.1-2.1,5-3.2,8-3.2s5.9,1.1,8,3.2c4.4,4.3,4.4,11.2,0,15.4-.8.8-1.8,1.5-2.9,2,1.1.5,2,1.2,2.9,2,2.1,2.1,3.3,4.8,3.3,7.7s-1.2,5.7-3.3,7.7c-2.1,2.1-5,3.2-8,3.2s-5.9-1.1-8-3.2c-.8-.8-1.5-1.7-2.1-2.8-.5,1-1.2,1.9-2.1,2.8-2.2,2.1-5,3.2-8,3.2s-5.9-1.1-8-3.2c-4.4-4.3-4.4-11.2,0-15.4.8-.8,1.8-1.5,2.9-2-1.1-.5-2-1.2-2.9-2h0Z"/>
        <polygon class="st2" points="127.5 146.3 123.9 152.9 127.6 159.7 141 153.1 127.5 146.3"/>
        <polygon class="st2" points="42.4 159.7 46.1 152.9 42.6 146.4 29.1 153.1 42.4 159.7"/>
        <path class="st2" d="M75.3,162.4c1.2-.2,2.9-1.1,4.4-2.5.7-.7,1.3-1.4,1.7-2.1-.5-.4-1-.8-1.4-1.3-.7.4-1.5,1-2.2,1.7-1.5,1.5-2.5,3.1-2.6,4.3h0Z"/>
        <path class="st2" d="M94.7,143.8c-1.2.2-2.9,1.1-4.4,2.5-.7.7-1.3,1.4-1.7,2.1.5.4,1,.8,1.4,1.3.7-.4,1.5-1,2.2-1.7,1.5-1.5,2.5-3.1,2.6-4.3h0Z"/>
        <path class="st3" d="M71.5,194.9l11.6,21.3c.4.7,1.1,1.1,2,1.1s1.6-.4,2-1.1l11.6-21.3,56.2,28c.8.4,1.9.3,2.6-.4.7-.7.8-1.7.4-2.5l-29-53.6,22.9-11.4c.7-.4,1.2-1.1,1.2-1.9s-.5-1.5-1.2-1.9l-23-11.5,29.2-53.6c.5-.8.3-1.8-.4-2.5-.7-.6-1.7-.8-2.6-.4l-55.9,27.9-11.9-21.9c-.4-.7-1.1-1.1-2-1.1s-1.6.4-2,1.1l-11.9,21.9-55.9-27.9c-.3-.2-.7-.2-1-.2-.6,0-1.1.2-1.6.6-.7.7-.8,1.7-.4,2.5l29.2,53.6-23,11.5c-.7.4-1.2,1.1-1.2,1.9s.5,1.5,1.2,1.9l22.9,11.4-29,53.6c-.4.8-.3,1.8.4,2.5.7.6,1.7.8,2.6.4l56.2-28h0ZM14.4,221.2c-.1,0-.2,0-.3,0,0,0-.1-.2,0-.3l29.9-55.3-24.6-12.2c0,0-.2-.1-.2-.2s0-.2.2-.2l24.7-12.3-30-55.2c0-.1,0-.2,0-.3,0,0,.2-.1.3,0l57.6,28.7,12.8-23.6c0-.2.4-.2.5,0l12.8,23.6,57.6-28.7c.1,0,.2,0,.3,0,0,0,.1.2,0,.3l-30.1,55.2,24.7,12.3c0,0,.2.1.2.2s0,.2-.2.2l-24.6,12.2,29.9,55.3c0,.1,0,.2,0,.3,0,0-.1,0-.2,0s0,0-.1,0l-57.9-28.8-12.5,22.9c0,.2-.4.2-.5,0l-12.5-22.9-57.9,28.8h0Z"/>
        <path class="st3" d="M125.4,165.3l-6.4-11.9-11.3,20.7,17.7-8.8ZM112.2,169.8l6.7-12.3,3.8,7.1-10.5,5.3Z"/>
        <path class="st3" d="M85,185.4l21.8-10.8,11.8-21.7-11.4-21.1-22.2-11-22.2,11.1-11.4,21.1,11.8,21.7,21.8,10.9h0ZM53.6,152.9l10.7-19.7,20.7-10.3,20.8,10.3,10.7,19.7-11.1,20.3-20.3,10.1-20.4-10.1-11-20.3h0Z"/>
        <path class="st3" d="M85.6,120.4l21.1,10.5-9-16.6s-12.2,6.1-12.2,6.1ZM102.2,126.6l-12.4-6.2,7.1-3.6,5.3,9.7Z"/>
        <path class="st3" d="M98.3,114.1l9.3,17.3,17.8,8.9,29.7-54.5-56.8,28.3h0ZM150.6,90.2l-25.9,47.6-15.6-7.8-8.2-15.1,49.7-24.7h0Z"/>
        <path class="st3" d="M44.8,140.7l6.3,11.6,10.9-20.1-17.1,8.5h0ZM57.5,136.6l-6.3,11.7-3.7-6.7,10-5Z"/>
        <path class="st3" d="M63.3,131l21.1-10.5-12.2-6.1s-9,16.6-9,16.6ZM73.1,116.9l7.1,3.6-12.4,6.2,5.3-9.7Z"/>
        <path class="st3" d="M106.4,175.4l-20.7,10.3,11.9,5.9,8.8-16.2h0ZM96.7,189.1l-6.9-3.4,12-6-5.1,9.4h0Z"/>
        <path class="st3" d="M44.2,165.1l6.6-12.2-6.5-11.9-24.2,12.1,24.1,12ZM24.3,153.1l19.2-9.6,5.1,9.4-5.3,9.7-19.1-9.5h0Z"/>
        <path class="st3" d="M125.7,141l-6.5,11.9,6.6,12.2,24.1-12s-24.2-12.1-24.2-12.1ZM145.8,153.1l-19.1,9.5-5.3-9.7,5.1-9.4,19.2,9.6Z"/>
        <path class="st3" d="M108.1,132.2l10.9,20.1,6.3-11.5-17.1-8.5ZM118.9,148.3l-6.3-11.7,10,5-3.7,6.7h0Z"/>
        <path class="st3" d="M62.4,174.1l-11.3-20.7-6.4,11.9,17.7,8.8h0ZM51.1,157.5l6.7,12.3-10.5-5.2,3.8-7.1h0Z"/>
        <path class="st3" d="M72.5,191.6l11.9-5.9-20.7-10.3,8.8,16.3ZM80.2,185.7l-6.9,3.4-5.1-9.4,12,6h0Z"/>
        <path class="st3" d="M85,214.6l12.2-22.5-12.2-6.1-12.2,6.1,12.2,22.5h0ZM85,188.1l9.6,4.8-9.6,17.7-9.6-17.7,9.6-4.8h0Z"/>
        <path class="st3" d="M85,90.8l-12.5,23.1,12.5,6.2,12.5-6.2-12.5-23.1ZM85,118l-9.9-4.9,9.9-18.3,9.9,18.3s-9.9,4.9-9.9,4.9Z"/>
        <path class="st3" d="M125.6,165.8l-18.4,9.2-9.2,16.9,57.1,28.5-29.5-54.5h0ZM150.6,216l-50-24.9,8-14.7,16.1-8,25.8,47.7h0Z"/>
        <path class="st3" d="M44.6,140.3l17.8-8.9,9.3-17.3-56.8-28.3,29.6,54.5h0ZM19.5,90.2l49.7,24.7-8.2,15.1-15.6,7.8-25.9-47.6h0Z"/>
        <path class="st3" d="M14.9,220.3l57.1-28.5-9.2-16.9-18.4-9.2-29.5,54.5h0ZM45.3,168.3l16.1,8,8,14.8-50,24.9s25.8-47.7,25.8-47.7Z"/>
        <path class="st2" d="M39.4,213.3l2.4-1.2,2-1,2.2-1.1,6.4-3.2.9-.5,7.3-3.6.8-.4,5.7-2.8.7-.4,2.6-1.3,1.2,2.1.4.7,3,5.5.4.8,3.8,6.9.5.9,1.4,2.5c.7,1.3,2.1,2.2,3.7,2.3,0,0,.2,0,.3,0s.2,0,.3,0c1.5-.1,2.9-.9,3.6-2.3l1.4-2.6.5-.9,3.8-6.9.4-.8,3-5.4.4-.7,1.1-2.1,2.7,1.3.7.4,5.7,2.8.8.4,7.3,3.6.9.5,6.4,3.2,2.2,1.1,2,1,2.4,1.2,2.7,1.4,2.2,1.1,18.1,9c1.7.8,3.8.5,5.2-.8s1.7-3.3.8-5l-9.4-17.4-1.1-2.1-1.4-2.6-1.3-2.3-1.1-2-1.2-2.2-3.3-6.2-.5-.9-3.8-7-.4-.8-3-5.5-.4-.7-1.2-2.3,2.5-1.3.7-.4,5.8-2.9.8-.4,7.3-3.7.9-.5,2.8-1.4c1.4-.7,2.3-2,2.4-3.5,0,0,0-.2,0-.3s0-.2,0-.3c0-1.5-1-2.8-2.4-3.5l-2.8-1.4-.9-.5-7.3-3.7-.8-.4-5.8-2.9-.7-.4-2.7-1.3,1.2-2.1.4-.7,3-5.5.4-.8,3.8-7,.5-.9,3.5-6.3,1.2-2.1,1.1-1.9,1.3-2.3,1.4-2.5,1.1-2.1,9.4-17.3c.9-1.7.6-3.6-.8-5-1.3-1.3-3.5-1.6-5.2-.8l-18.1,9-2.2,1.1-2.8,1.4-2.3,1.1-2.1,1-2.2,1.1-6.4,3.2-.9.5-7.3,3.6-.8.4-5.7,2.8-.7.4-2.4,1.2-1.3-2.4-.4-.7-3-5.5-.4-.8-3.8-7-.5-.9-1.5-2.7c-.7-1.3-2.1-2.2-3.7-2.3,0,0-.2,0-.3,0s-.2,0-.3,0c-1.5,0-2.9.9-3.6,2.3l-1.5,2.7-.5.9-3.8,7-.4.8-3,5.5-.4.7-1.3,2.4-2.4-1.2-.7-.4-5.7-2.8-.8-.4-7.3-3.6-.9-.5-6.4-3.2-2.2-1.1-2-1-2.5-1.2-2.7-1.3-2.2-1.1-18.1-9c-1.7-.8-3.8-.5-5.2.8-1.4,1.3-1.7,3.3-.8,5l9.4,17.3,1.1,2.1,1.5,2.7,1.2,2.1,1.1,2,1.2,2.1,3.4,6.3.5.9,3.8,7,.4.8,3,5.5.4.7,1.2,2.1-2.6,1.3-.7.4-5.8,2.9-.8.4-7.3,3.7-.9.5-2.8,1.4c-1.4.7-2.3,2-2.4,3.5,0,0,0,.2,0,.3s0,.2,0,.3c0,1.5,1,2.8,2.4,3.5l2.8,1.4.9.5,7.3,3.7.8.4,5.8,2.9.7.4,2.5,1.3-1.2,2.3-.4.7-3,5.5-.4.8-3.8,7-.5.9-3.3,6.2-1.2,2.2-1.1,2-1.2,2.3-1.4,2.6-1.1,2.1-9.4,17.4c-.9,1.7-.6,3.6.8,5,.8.8,1.9,1.2,3.1,1.2s1.4-.2,2-.5l18.1-9,2.2-1.1,2.8-1.4h0ZM12.7,222.5c-.7-.7-.8-1.7-.4-2.5l29-53.6-22.9-11.4c-.7-.4-1.2-1.1-1.2-1.9s.5-1.5,1.2-1.9l23-11.5-29.2-53.6c-.5-.8-.3-1.8.4-2.5.4-.4,1-.6,1.6-.6s.7,0,1,.2l55.9,27.9,11.9-21.9c.4-.7,1.1-1.1,2-1.1s1.6.4,2,1.1l11.9,21.9,55.9-27.9c.8-.4,1.9-.3,2.6.4.7.7.8,1.7.4,2.5l-29.2,53.6,23,11.5c.7.4,1.2,1.1,1.2,1.9s-.5,1.5-1.2,1.9l-22.9,11.4,29,53.6c.4.8.3,1.8-.4,2.5s-1.7.8-2.6.4l-56.2-28-11.6,21.3c-.4.7-1.1,1.1-2,1.1s-1.6-.4-2-1.1l-11.6-21.3-56.2,28c-.8.4-1.9.3-2.6-.4h0Z"/>
        <path class="st2" d="M85,183.3l20.3-10.1,11.1-20.3-10.7-19.7-20.8-10.3-20.7,10.3-10.7,19.7,11,20.3,20.4,10.1h0ZM56.1,152.9l9.8-18.1,19.1-9.5,19.1,9.5,9.8,18.1-10.2,18.8-18.7,9.3-18.7-9.3-10.2-18.7h0Z"/>
        <path class="st2" d="M112.6,136.6l6.3,11.7,3.7-6.7-10-5h0ZM117.8,141.5l1.8.9-.7,1.2-1.2-2.1h0Z"/>
        <path class="st2" d="M122.8,164.5l-3.8-7.1-6.7,12.3,10.5-5.3ZM118.9,162.1l.8,1.6-2.3,1.2,1.5-2.7Z"/>
        <path class="st2" d="M57.8,169.8l-6.7-12.3-3.8,7.1,10.5,5.2h0ZM52.6,164.8l-2.3-1.2.8-1.6,1.5,2.7Z"/>
        <path class="st2" d="M89.8,120.4l12.4,6.2-5.3-9.7s-7.1,3.6-7.1,3.6ZM97.1,121.6l-2.4-1.2,1.4-.7s1,1.9,1,1.9Z"/>
        <path class="st2" d="M47.5,141.5l3.7,6.7,6.3-11.7-10,5ZM51.1,143.7l-.7-1.2,1.8-.9-1.2,2.1h0Z"/>
        <path class="st2" d="M101.8,179.8l-12,6,6.9,3.4,5.1-9.4h0ZM96.6,184.7l-.8,1.5-1.1-.6,2-1Z"/>
        <path class="st2" d="M67.8,126.6l12.4-6.2-7.1-3.6-5.3,9.7ZM74,119.7l1.4.7-2.4,1.2s1-1.9,1-1.9Z"/>
        <path class="st2" d="M43.4,162.6l5.3-9.7-5.1-9.4-19.2,9.6,19.1,9.5h0ZM29.1,153.1l13.5-6.7,3.6,6.5-3.7,6.8-13.3-6.6h0Z"/>
        <path class="st2" d="M126.5,143.5l-5.1,9.4,5.3,9.7,19.1-9.5-19.2-9.6ZM141,153.1l-13.3,6.6-3.7-6.8,3.6-6.5,13.5,6.7Z"/>
        <path class="st2" d="M73.4,189.1l6.9-3.4-12-6,5.1,9.4h0ZM73.5,184.7l2,1-1.1.6-.8-1.6h0Z"/>
        <path class="st2" d="M85,210.6l9.6-17.7-9.6-4.8-9.6,4.8,9.6,17.7h0ZM78.4,193.8l6.6-3.3,6.6,3.3-6.6,12.2s-6.6-12.2-6.6-12.2Z"/>
        <path class="st2" d="M85,94.8l-9.9,18.3,9.9,4.9,9.9-4.9s-9.9-18.3-9.9-18.3ZM92,112.2l-6.9,3.4-6.9-3.4,6.9-12.8,6.9,12.8Z"/>
        <path class="st2" d="M45.4,137.8l15.6-7.8,8.2-15.1-49.7-24.7,25.9,47.6h0ZM66.2,115.8l-6.8,12.6-13,6.5-21.6-39.8s41.5,20.7,41.5,20.7Z"/>
        <path class="st2" d="M100.9,114.9l8.2,15.1,15.6,7.8,25.9-47.6-49.7,24.7h0ZM123.7,134.9l-13-6.5-6.8-12.6,41.5-20.7-21.6,39.8h0Z"/>
        <path class="st2" d="M19.5,216l50-24.9-8-14.8-16.1-8s-25.8,47.7-25.8,47.7ZM46.2,171.2l13.5,6.7,6.7,12.3-41.8,20.8,21.6-39.8h0Z"/>
        <path class="st2" d="M124.8,168.3l-16.1,8-8,14.7,50,24.9-25.8-47.7h0ZM103.6,190.2l6.7-12.3,13.6-6.8,21.6,39.8s-41.8-20.8-41.8-20.8Z"/>
        <path class="st3" d="M66.9,155.1c-4.4,4.3-4.4,11.2,0,15.4s5,3.2,8,3.2,5.9-1.1,8-3.2c.8-.8,1.5-1.7,2.1-2.8.5,1,1.2,1.9,2.1,2.8,2.1,2.1,5,3.2,8,3.2s5.9-1.1,8-3.2c2.1-2.1,3.3-4.8,3.3-7.7s-1.2-5.7-3.3-7.7c-.8-.8-1.8-1.5-2.9-2,1.1-.5,2-1.2,2.9-2,4.4-4.3,4.4-11.2,0-15.4-2.1-2.1-5-3.2-8-3.2s-5.9,1.1-8,3.2c-.8.8-1.5,1.7-2.1,2.8-.5-1-1.2-1.9-2.1-2.8-2.1-2.1-5-3.2-8-3.2s-5.9,1.1-8,3.2c-2.2,2.1-3.3,4.8-3.3,7.7s1.2,5.7,3.3,7.7c.8.8,1.8,1.5,2.9,2-1.1.5-2,1.2-2.9,2h0ZM73.5,152c-2-.3-3.7-1.1-5.1-2.4-1.7-1.7-2.7-3.9-2.7-6.2s1-4.6,2.7-6.2,4-2.6,6.5-2.6,4.7.9,6.5,2.6c1.4,1.3,2.2,3,2.5,4.9,0,.5.5.9,1.1.9h0c.5,0,1-.4,1.1-.9.3-1.9,1.2-3.6,2.5-4.9,1.7-1.7,4-2.6,6.5-2.6s4.7.9,6.5,2.6c3.6,3.4,3.6,9,0,12.4-1.4,1.3-3.1,2.2-5.1,2.4-.5,0-.9.5-.9,1.1s.4,1,.9,1.1c2,.3,3.7,1.1,5.1,2.4,3.6,3.4,3.6,9,0,12.4-1.7,1.7-4,2.6-6.5,2.6s-4.7-.9-6.5-2.6c-1.4-1.3-2.2-3-2.5-4.9,0-.5-.5-.9-1.1-.9h0c-.5,0-1,.4-1.1.9-.3,1.9-1.2,3.6-2.5,4.9-1.7,1.7-4,2.6-6.5,2.6s-4.7-.9-6.5-2.6c-3.6-3.4-3.6-9,0-12.4,1.4-1.3,3.1-2.2,5.1-2.4.5,0,.9-.5.9-1.1s-.4-1-.9-1.1Z"/>
        <path class="st3" d="M79.1,152c.2-.9.5-1.7,1-2.4-.7-.4-1.5-1-2.2-1.7-1.5-1.5-2.5-3.1-2.6-4.3,1.2.2,2.9,1.1,4.4,2.5.7.7,1.3,1.4,1.7,2.1.7-.5,1.5-.8,2.5-1,.2-2-.5-4.1-2.2-5.8-2.8-2.6-6.9-2.9-9.3-.6-2.4,2.3-2.1,6.3.7,8.9,1.7,1.6,4,2.4,6,2.1h0Z"/>
        <path class="st3" d="M81.5,157.8c-.4.7-1,1.4-1.7,2.1-1.5,1.5-3.2,2.4-4.4,2.5.2-1.2,1.1-2.8,2.6-4.3s1.5-1.2,2.2-1.7c-.5-.7-.9-1.5-1-2.4-2-.2-4.3.5-6,2.1-2.8,2.6-3.1,6.6-.7,8.9,2.4,2.3,6.6,2,9.3-.7,1.7-1.6,2.5-3.8,2.2-5.8-.9-.2-1.7-.5-2.5-1h0Z"/>
        <path class="st3" d="M88.6,148.4c.4-.7,1-1.4,1.7-2.1,1.5-1.5,3.2-2.4,4.4-2.5-.2,1.2-1.1,2.8-2.6,4.3s-1.5,1.2-2.2,1.7c.5.7.9,1.5,1,2.4,2,.2,4.3-.5,6-2.1,2.8-2.6,3.1-6.6.7-8.9-2.4-2.3-6.6-2-9.3.7-1.7,1.6-2.5,3.8-2.2,5.8.9.2,1.7.5,2.5,1h0Z"/>
        <path class="st3" d="M89.9,156.5c.7.4,1.5,1,2.2,1.7,1.5,1.5,2.5,3.1,2.6,4.3-1.2-.2-2.9-1.1-4.4-2.5-.7-.7-1.3-1.4-1.7-2.1-.7.5-1.5.8-2.5,1-.2,2,.5,4.1,2.2,5.8,2.8,2.6,6.9,2.9,9.3.7,2.4-2.3,2.1-6.3-.7-8.9-1.7-1.6-4-2.4-6-2.2-.2.9-.5,1.7-1,2.4h0Z"/>
        <path class="st2" d="M81.5,148.4c-.5.4-1,.8-1.4,1.3-.5.7-.9,1.5-1,2.4,0,.3-.1.7-.1,1s0,.7.1,1c.2.9.5,1.7,1,2.4.4.5.8.9,1.4,1.3.7.5,1.5.8,2.5,1,.3,0,.7.1,1.1.1s.7,0,1.1-.1c.9-.2,1.7-.5,2.5-1,.5-.4,1-.8,1.4-1.3.5-.7.9-1.5,1-2.4,0-.3.1-.7.1-1s0-.7-.1-1c-.2-.9-.5-1.7-1-2.4-.4-.5-.8-.9-1.4-1.3-.7-.5-1.5-.8-2.5-1-.3,0-.7-.1-1.1-.1s-.7,0-1.1.1c-.9.2-1.7.5-2.5,1h0ZM88.2,153.1c0,1.7-1.4,3-3.1,3s-3.1-1.4-3.1-3,1.4-3,3.1-3,3.1,1.3,3.1,3Z"/>
        <path class="st3" d="M81.9,153.1c0,1.7,1.4,3,3.1,3s3.1-1.4,3.1-3-1.4-3-3.1-3-3.1,1.3-3.1,3Z"/>
        <path class="st2" d="M72.3,192.3l12.5,22.9c0,.2.4.2.5,0l12.5-22.9,57.9,28.8s0,0,.1,0c0,0,.1,0,.2,0s.1-.2,0-.3l-29.9-55.3,24.6-12.2c0,0,.2-.1.2-.2s0-.2-.2-.2l-24.7-12.3,30.1-55.2c0-.1,0-.2,0-.3,0,0-.2-.1-.3,0l-57.6,28.7-12.8-23.6c0-.2-.4-.2-.5,0l-12.8,23.6-57.6-28.7c-.1,0-.2,0-.3,0,0,0-.1.2,0,.3l30,55.2-24.7,12.3c0,0-.2.1-.2.2s0,.2.2.2l24.6,12.2-29.9,55.3c0,.1,0,.2,0,.3,0,0,.2.1.3,0l57.9-28.8h0ZM44.4,165.8l18.4,9.2,9.2,16.9-57.1,28.5,29.5-54.5h0ZM20.1,153.1l24.2-12.1,6.5,11.9-6.6,12.2-24.1-12ZM14.9,85.8l56.8,28.3-9.3,17.3-17.8,8.9-29.6-54.5h0ZM155.1,85.8l-29.7,54.5-17.8-8.9-9.3-17.3s56.8-28.3,56.8-28.3ZM150,153.1l-24.1,12-6.6-12.2,6.5-11.9,24.2,12.1ZM155.1,220.3l-57.1-28.5,9.2-16.9,18.4-9.2,29.5,54.5ZM51.4,152.9l11.4-21.1,22.2-11.1,22.2,11,11.4,21.1-11.8,21.7-21.8,10.8-21.8-10.9-11.8-21.7h0ZM84.4,185.7l-11.9,5.9-8.8-16.3,20.7,10.3ZM85.6,185.7l20.7-10.3-8.8,16.2-11.9-5.9h0ZM107.7,174.1l11.3-20.7,6.4,11.9-17.7,8.8ZM118.9,152.3l-10.9-20.1,17.1,8.5s-6.3,11.5-6.3,11.5ZM106.8,131l-21.1-10.5,12.2-6.1,9,16.6ZM84.4,120.4l-21.1,10.5,9-16.6,12.2,6.1ZM62,132.2l-10.9,20.1-6.3-11.6,17.1-8.5h0ZM51.1,153.4l11.3,20.7-17.7-8.8,6.4-11.9h0ZM85,186l12.2,6.1-12.2,22.5-12.2-22.5,12.2-6.1h0ZM85,120.1l-12.5-6.2,12.5-23.1,12.5,23.1-12.5,6.2Z"/>
        <path class="st3" d="M1.2,236.1h-.3v1c0,0,.2,0,.3,0s.2,0,.3,0v-1h-.3Z"/>
        <path class="st3" d="M65,309.9l6.9.6c0-.2,0-.3,0-.5l-6-.5-.9.5h0Z"/>
        <path class="st3" d="M71.1,304.3c0,0,0,.2,0,.3h1.1v-.5h-1.1c0,0,0,.2,0,.3Z"/>
        <path class="st3" d="M65.9,299.1l6-.5c0-.2,0-.4,0-.5l-6.9.6.9.5h0Z"/>
        <path class="st3" d="M57.6,295l13.5-2.3c0-.2,0-.3,0-.5l-14.2,2.4.8.4h0Z"/>
        <path class="st3" d="M51.1,291.7l18.7-4.8c0-.2-.1-.3-.2-.5l-19.3,5,.7.4h0Z"/>
        <path class="st3" d="M48.8,287.9l19.1-6.7c0-.2-.1-.3-.2-.5l-18.6,6.5-.4.7h0Z"/>
        <path class="st3" d="M52.2,281.7l13.4-6c0-.2-.2-.3-.2-.5l-12.7,5.7-.4.8h0Z"/>
        <path class="st3" d="M56.4,273.9l6.3-3.5c0-.2-.2-.3-.3-.5l-5.6,3.1-.5.9h0Z"/>
        <path class="st3" d="M36.4,245.1l-3.5,5.9.9-.5,3.1-5.1c-.2,0-.3-.2-.5-.3h0Z"/>
        <path class="st3" d="M30.9,242.4l-6.1,12.6.8-.4,5.8-12c-.2,0-.3-.1-.5-.2h0Z"/>
        <path class="st3" d="M25.2,240.2l-6.9,18.1.7-.4,6.7-17.6c-.2,0-.3-.1-.5-.2h0Z"/>
        <path class="st3" d="M19.3,238.4l-5,18,.4.7,5.2-18.5c-.2,0-.3-.1-.5-.1h0Z"/>
        <path class="st3" d="M13.2,237.1l-2.4,12.9.4.8,2.5-13.6c-.2,0-.4,0-.5,0Z"/>
        <path class="st3" d="M7.1,236.4l-.5,5.8.5.9.6-6.6c-.2,0-.4,0-.5,0h0Z"/>
        <path class="st3" d="M61.5,264.6l-1.2,2.1c.7,1.1,1.4,2.2,2.1,3.3,0,.2.2.3.3.5.9,1.6,1.8,3.2,2.6,4.8,0,.2.2.3.2.5.8,1.6,1.5,3.3,2.2,5,0,.2.1.3.2.5.6,1.7,1.2,3.4,1.7,5.2,0,.2.1.3.2.5.5,1.7.9,3.5,1.2,5.3,0,.2,0,.3,0,.5.3,1.8.6,3.6.7,5.4,0,.2,0,.4,0,.5.2,1.8.2,3.6.3,5.4v.5c0,1.8-.1,3.6-.3,5.4,0,.2,0,.4,0,.5,0,.3,0,.6,0,1h2.2c.2-2.4.4-4.7.4-7.1,0-14.7-4.7-28.4-12.8-39.7h0Z"/>
        <path class="st3" d="M1.2,236.1h.3c1.9,0,3.8.1,5.6.2.2,0,.4,0,.5,0,1.9.2,3.7.4,5.6.7.2,0,.4,0,.5,0,1.9.3,3.7.7,5.5,1.2.2,0,.3.1.5.1,1.8.5,3.6,1,5.4,1.6.2,0,.3.1.5.2,1.8.6,3.5,1.3,5.2,2.1.2,0,.3.1.5.2,1.7.8,3.4,1.6,5,2.5.2,0,.3.2.5.3,1.1.6,2.2,1.3,3.3,2l2.2-1.1c-11.8-7.7-26-12.3-41.3-12.3s-1.3,0-1.9,0v2.1c.5,0,1.1,0,1.6,0h.3Z"/>
        <path class="st3" d="M66.4,255.7l-1.1,2.1c10.2,12.9,16.3,29.1,16.3,46.5s-.1,4.8-.4,7.1h2.2c.2-2.4.3-4.7.3-7.1,0-18.3-6.5-35.1-17.4-48.6h0Z"/>
        <path class="st3" d="M49.6,242.7l2.2-1.1c-14-10.4-31.5-16.7-50.6-16.7s-1.3,0-1.9,0v2.1c.6,0,1.3,0,1.9,0,18.2,0,34.9,5.8,48.4,15.6h0Z"/>
        <line class="st1" x1="73.3" y1="278.8" x2="74.8" y2="278.3"/>
        <path class="st3" d="M69,266.5l-1.4.7,1.4-.8c-.4-.7-1.4-1-2.2-.6-.8.4-1,1.4-.6,2.1,0,0,0,.1,0,.1.3.5.8.7,1.4.7s.6,0,.8-.2c.8-.4,1-1.4.5-2.2h0Z"/>
        <path class="st3" d="M77.7,310.7h1.6c0-.7-.6-1.5-1.5-1.6-.9-.1-1.7.5-1.8,1.4,0,0,0,.1,0,.1,0,.3,0,.5.1.7h3c0-.2.1-.3.1-.5,0,0-1.6-.2-1.6-.2Z"/>
        <path class="st3" d="M75.7,286.6c.9-.2,1.4-1.1,1.2-1.9,0,0,0-.1,0-.1-.2-.8-1.1-1.3-2-1.1-.9.2-1.4,1.1-1.1,2,.2.7.8,1.2,1.6,1.2s.3,0,.4,0Z"/>
        <path class="st3" d="M20.5,234.5c.2,0,.3,0,.4,0,.7,0,1.4-.4,1.6-1.1.2-.8-.3-1.7-1.1-1.9,0,0-.1,0-.2,0-.9-.2-1.7.3-1.9,1.1-.2.8.3,1.7,1.2,1.9h0Z"/>
        <path class="st3" d="M77.7,299.3h.1c.9,0,1.6-.8,1.5-1.7h0c0-1-.9-1.6-1.8-1.5-.9,0-1.5.9-1.5,1.7,0,.8.8,1.4,1.6,1.4h0Z"/>
        <path class="st3" d="M79.6,304.1h0c0,0,0,0,0,0,0-.9-.7-1.6-1.6-1.6s-1.6.7-1.6,1.6h0v.2h0c0,1,.7,1.7,1.6,1.7s1.6-.7,1.6-1.6h0v-.2h0Z"/>
        <path class="st3" d="M46.1,242.6s-.1,0-.1,0c-.7-.5-1.7-.3-2.2.4-.5.7-.3,1.7.4,2.2,0,0,.2.1.3.1l2.2-1.1c.1-.6-.1-1.2-.6-1.6h0Z"/>
        <path class="st3" d="M16,231.9c.2-.8-.5-1.7-1.4-1.8,0,0,0,0,0,0l-.3,1.5v1.6c0,0,0,0,.1,0,.8,0,1.4-.5,1.6-1.3h0Z"/>
        <path class="st3" d="M2.7,230.5c0-.9-.7-1.6-1.6-1.6h-.1c-.9,0-1.6.7-1.6,1.6s.8,1.6,1.7,1.6,1.6-.7,1.6-1.6h0Z"/>
        <path class="st3" d="M7.5,232.4s.1,0,.2,0h.1c.8,0,1.6-.6,1.6-1.5,0-.9-.6-1.6-1.5-1.7l-.2,1.6.2-1.6c-.9-.1-1.7.5-1.8,1.4,0,.9.6,1.6,1.5,1.7h0Z"/>
        <path class="st3" d="M26.8,236.4c.2,0,.4,0,.6,0,.7,0,1.3-.4,1.5-1,.3-.8-.1-1.7-1-2h-.1c-.8-.3-1.7.1-2,.9s.2,1.7,1,2h0Z"/>
        <path class="st3" d="M77.1,292.9c.9-.2,1.5-1,1.3-1.8l-1.6.2,1.6-.3c-.2-.8-1-1.4-1.9-1.3-.9.1-1.5,1-1.3,1.8,0,0,0,.1,0,.1.2.7.8,1.3,1.6,1.3s.2,0,.3,0h0Z"/>
        <path class="st3" d="M38.7,241.7c.3.1.5.2.8.2.6,0,1.1-.3,1.4-.8.4-.7.2-1.7-.6-2.1h0c-.8-.5-1.7-.2-2.2.5-.4.7-.1,1.7.7,2.2h0Z"/>
        <path class="st3" d="M62.7,262.8c.3.4.8.7,1.4.7s.6,0,.9-.3c.7-.5.9-1.5.4-2.2,0,0,0-.1,0-.1-.3-.5-.9-.6-1.4-.6l-1.2,2.3c0,0,0,.1,0,.2h0Z"/>
        <path class="st3" d="M72.2,272.3l-1.5.6,1.5-.7c-.4-.8-1.4-1.1-2.2-.8-.8.4-1.2,1.3-.8,2.1,0,0,0,.1,0,.1.3.6.9.9,1.5.9s.5,0,.7-.2c.8-.4,1.2-1.3.8-2.1h0Z"/>
        <path class="st3" d="M74.8,278.4l-1.6.4-1.5.6c.2.6.9,1,1.5,1s.4,0,.6-.1c.8-.3,1.3-1.2,1-2Z"/>
        <path class="st3" d="M32.7,238.8s.1,0,.1,0c.2,0,.4.1.7.1.6,0,1.2-.3,1.5-.9.4-.8,0-1.7-.8-2.1l-.8,1.4.7-1.4c-.8-.4-1.8,0-2.2.7-.4.8,0,1.7.8,2.1h0Z"/>
        <polygon class="st2" points="10.8 271.6 13.2 272.8 12.2 270.9 10.8 271.6"/>
        <polygon class="st2" points="61.5 246.3 20 267 26.8 279.6 39.8 286.1 61.5 246.3"/>
        <path class="st2" d="M8.2,309.3c-.7-.7-1.5-1.2-2.2-1.7-.4.5-.8.9-1.4,1.3.4.7,1,1.4,1.7,2.1.1.1.3.2.4.4h3.2c-.4-.7-1-1.4-1.7-2.1h0Z"/>
        <polygon class="st2" points="1.2 266.8 8.1 263.4 1.2 250.6 -.8 254.1 -.8 265.9 1.2 266.8"/>
        <path class="st2" d="M1.2,310.1c-.2,0-.3,0-.4,0,.4.4.9.7,1.5,1,0-.3,0-.7,0-1-.3,0-.7.1-1.1.1h0Z"/>
        <path class="st2" d="M17.7,307.7c-1.4-1.3-3.1-2.2-5.1-2.4-.5,0-.9-.5-.9-1.1s.4-1,.9-1.1c2-.3,3.7-1.1,5.1-2.4,3.6-3.4,3.6-9,0-12.4-1.7-1.7-4-2.6-6.5-2.6s-4.7.9-6.5,2.6c-1.4,1.3-2.3,3-2.5,4.9,0,.5-.5.9-1.1.9h0c-.5,0-1-.4-1.1-.9-.1-.9-.4-1.8-.8-2.5v4c.7,1.3,1,2.6.8,3.9.3,0,.7-.1,1.1-.1s.7,0,1.1.1c-.2-2,.5-4.1,2.2-5.8,2.8-2.6,6.9-2.9,9.3-.6,2.4,2.3,2.1,6.3-.7,8.9-1.7,1.6-4,2.4-6,2.2,0,.3.1.7.1,1s0,.7-.1,1c2-.2,4.3.5,6,2.2,1.2,1.2,1.9,2.6,2.2,4h4.8c-.4-1.3-1.2-2.6-2.3-3.7h0Z"/>
        <path class="st2" d="M30.1,304l-9.8-18.1-19.1-9.5-1.9.9v9.7c.8.8,1.4,1.6,1.9,2.6.5-1,1.2-1.9,2.1-2.8,2.1-2.1,5-3.2,8-3.2s5.9,1.1,8,3.2c4.4,4.3,4.4,11.2,0,15.4-.8.8-1.8,1.5-2.9,2,1.1.5,2,1.2,2.9,2,1.5,1.5,2.5,3.3,3,5.2h3.7l4-7.4Z"/>
        <polygon class="st2" points="43.7 310.9 57.1 304.3 43.6 297.5 40 304 43.7 310.9"/>
        <polygon class="st2" points="35.1 294.8 35.7 293.6 33.9 292.7 35.1 294.8"/>
        <path class="st2" d="M10.9,294.9c-1.2.2-2.9,1.1-4.4,2.5-.7.7-1.3,1.4-1.7,2.1.5.4,1,.8,1.4,1.3.7-.4,1.5-1,2.2-1.7,1.5-1.5,2.5-3.1,2.6-4.3Z"/>
        <path class="st3" d="M67.7,306.1c.7-.4,1.2-1.1,1.2-1.9s-.5-1.5-1.2-1.9l-23-11.5,29.2-53.6c.5-.8.3-1.8-.4-2.5s-1.7-.8-2.6-.4l-55.9,27.9-11.9-21.9c-.4-.7-1.1-1.1-2-1.1s-1.5.4-1.9,1.1v4l1.7-3.1c0-.2.4-.2.5,0l12.8,23.6,57.6-28.7c.1,0,.2,0,.3,0,0,0,.1.2,0,.3l-30.1,55.2,24.7,12.3c0,0,.2.1.2.2s0,.2-.2.2l-13.9,6.9h4.2l10.6-5.3h0Z"/>
        <polygon class="st3" points="-.8 271 -.8 272.3 .5 271.6 -.8 271"/>
        <polygon class="st3" points="1.2 271.3 13.7 265.1 1.2 241.9 -.8 245.5 -.8 249.5 1.2 246 11.1 264.3 1.2 269.2 -.8 268.3 -.8 270.3 1.2 271.3"/>
        <polygon class="st3" points="34.7 304 23.3 283 1.2 271.9 -.8 272.9 -.8 274.9 1.2 274 21.9 284.3 32.6 304 28.5 311.4 30.7 311.4 34.7 304"/>
        <polygon class="st3" points="35.1 304.6 31.3 311.4 33.5 311.4 35.1 308.6 36.5 311.4 38.7 311.4 35.1 304.6"/>
        <polygon class="st3" points="66.1 304.3 41.8 292.2 35.4 304 39.3 311.4 41.5 311.4 37.6 304 42.6 294.7 61.9 304.3 47.5 311.4 51.7 311.4 66.1 304.3"/>
        <path class="st3" d="M35.1,303.5l6.3-11.5-17.1-8.5,10.9,20.1h0ZM38.7,292.7l-3.7,6.7-6.3-11.7,10,5h0Z"/>
        <path class="st3" d="M1.8,271.6l21.1,10.5-9-16.6s-12.2,6.1-12.2,6.1ZM18.4,277.8l-12.4-6.2,7.1-3.6,5.3,9.7Z"/>
        <path class="st3" d="M14.4,265.3l9.3,17.3,17.8,8.9,29.7-54.5-56.8,28.3h0ZM66.7,241.3l-25.9,47.6-15.6-7.8-8.2-15.1,49.7-24.7h0Z"/>
        <path class="st2" d="M65.9,309.4l2.8-1.4c1.4-.7,2.3-2,2.4-3.5,0,0,0-.2,0-.3s0-.2,0-.3c0-1.5-1-2.8-2.4-3.5l-2.8-1.4-.9-.5-7.4-3.7-.8-.4-5.8-2.9-.7-.4-2.7-1.3,1.2-2.1.4-.7,3-5.5.4-.8,3.8-7,.5-.9,3.4-6.3,1.2-2.1,1.1-2,1.2-2.3,1.4-2.6,1.1-2.1,9.4-17.3c.9-1.7.6-3.6-.8-5-1.3-1.3-3.5-1.6-5.2-.8l-18.1,9-2.2,1.1-2.8,1.4-2.2,1.1-2.1,1-2.2,1.1-6.4,3.2-.9.5-7.3,3.6-.8.4-5.7,2.8-.7.4-2.4,1.2-1.3-2.4-.4-.7-3-5.5-.4-.8-3.8-7-.5-.9-1.5-2.7c-.7-1.3-2.1-2.2-3.6-2.3,0,0-.2,0-.3,0s-.2,0-.3,0c-.6,0-1.1.2-1.6.4v2.8c.4-.7,1.1-1.1,1.9-1.1s1.6.4,2,1.1l11.9,21.9,55.9-27.9c.8-.4,1.9-.3,2.6.4s.8,1.7.4,2.5l-29.2,53.6,23,11.5c.7.4,1.2,1.1,1.2,1.9s-.5,1.5-1.2,1.9l-10.6,5.3h4.8l3.1-1.5.9-.5h0Z"/>
        <polygon class="st2" points="32.6 304 21.9 284.3 1.2 274 -.8 274.9 -.8 277.3 1.2 276.4 20.3 285.9 30.1 304 26.1 311.4 28.5 311.4 32.6 304"/>
        <path class="st2" d="M35.1,299.4l3.7-6.7-10-5,6.3,11.7h0ZM35.7,293.6l-.7,1.2-1.2-2.1s1.8.9,1.8.9Z"/>
        <polygon class="st2" points="1.2 269.2 11.1 264.3 1.2 246 -.8 249.5 -.8 254.1 1.2 250.6 8.1 263.4 1.2 266.8 -.8 265.9 -.8 268.3 1.2 269.2"/>
        <polygon class="st2" points="35.1 308.6 33.5 311.4 36.5 311.4 35.1 308.6"/>
        <path class="st2" d="M61.9,304.3l-19.2-9.6-5.1,9.4,4,7.4h6l14.4-7.2h0ZM40,304l3.6-6.5,13.5,6.7-13.3,6.6s-3.7-6.8-3.7-6.8Z"/>
        <path class="st2" d="M5.9,271.6l12.4,6.2-5.3-9.7s-7.1,3.6-7.1,3.6ZM13.2,272.8l-2.4-1.2,1.4-.7,1,1.9h0Z"/>
        <path class="st2" d="M17,266.1l8.2,15.1,15.6,7.8,25.9-47.6-49.7,24.7h0ZM39.8,286.1l-13-6.5-6.8-12.6,41.5-20.7-21.6,39.8h0Z"/>
        <path class="st3" d="M19.3,306.2c-.8-.8-1.8-1.5-2.9-2,1.1-.5,2-1.2,2.9-2,4.4-4.3,4.4-11.2,0-15.4-2.1-2.1-5-3.2-8-3.2s-5.9,1.1-8,3.2c-.8.8-1.5,1.7-2.1,2.8-.5-.9-1.1-1.8-1.9-2.6v3.7c.4.8.7,1.6.8,2.5,0,.5.5.9,1.1.9h0c.5,0,1-.4,1.1-.9.3-1.9,1.2-3.6,2.5-4.9,1.7-1.7,4-2.6,6.5-2.6s4.7.9,6.5,2.6c3.6,3.4,3.6,9,0,12.4-1.4,1.3-3.1,2.2-5.1,2.4-.5,0-.9.5-.9,1.1s.4,1,.9,1.1c2,.3,3.7,1.1,5.1,2.4,1.1,1.1,1.9,2.3,2.3,3.7h2.3c-.5-1.9-1.5-3.7-3-5.2h0Z"/>
        <path class="st3" d="M0,298.5c.2-1.3-.1-2.6-.8-3.9v4.1c.3,0,.5-.2.8-.2H0Z"/>
        <path class="st3" d="M4.7,299.5c.4-.7,1-1.4,1.7-2.1,1.5-1.5,3.2-2.4,4.4-2.5-.2,1.2-1.1,2.8-2.6,4.3-.7.7-1.5,1.2-2.2,1.7.5.7.9,1.5,1,2.4,2,.2,4.3-.5,6-2.2,2.8-2.6,3.1-6.6.7-8.9-2.4-2.3-6.6-2-9.3.6-1.7,1.6-2.5,3.8-2.2,5.8.9.2,1.7.5,2.5,1h0Z"/>
        <path class="st3" d="M6.4,311c-.7-.7-1.3-1.4-1.7-2.1-.7.5-1.5.8-2.5,1,0,.3,0,.7,0,1,.6.3,1.3.4,2,.4h2.6c-.1-.1-.3-.2-.4-.4h0Z"/>
        <path class="st3" d="M13.1,307.4c-1.7-1.6-4-2.4-6-2.2-.2.9-.5,1.7-1,2.4.7.4,1.5,1,2.2,1.7.7.7,1.3,1.4,1.7,2.1h5.3c-.3-1.4-1-2.8-2.2-4h0Z"/>
        <path class="st2" d="M1.2,310.1c.4,0,.7,0,1.1-.1.9-.2,1.7-.5,2.5-1,.5-.4,1-.8,1.4-1.3.5-.7.9-1.5,1-2.4,0-.3.1-.7.1-1s0-.7-.1-1c-.2-.9-.5-1.7-1-2.4-.4-.5-.8-.9-1.4-1.3-.7-.5-1.5-.8-2.5-1-.3,0-.7-.1-1.1-.1s-.7,0-1.1.1c-.3,0-.6.1-.8.2v3.1c.5-.4,1.2-.6,1.9-.6,1.7,0,3.1,1.4,3.1,3s-1.4,3-3.1,3-1.4-.2-1.9-.6h0c0,1.4.6,2.5,1.5,3.4.2,0,.3,0,.4,0h0Z"/>
        <path class="st3" d="M1.2,307.3c1.7,0,3.1-1.3,3.1-3s-1.4-3-3.1-3-1.4.2-1.9.6v4.7c.5.4,1.2.6,1.9.6Z"/>
        <path class="st2" d="M66.8,304.5c0,0,.2-.1.2-.2s0-.2-.2-.2l-24.7-12.3,30.1-55.2c0-.1,0-.2,0-.3,0,0-.2-.1-.3,0l-57.6,28.7-12.8-23.6c0-.2-.4-.2-.5,0l-1.7,3.1v1.2l1.9-3.5,12.5,23.1-12.5,6.2-1.9-.9v.6l1.3.7-1.3.7v.6l1.9-.9,22.2,11,11.4,21.1-4,7.4h.6l3.7-6.8,3.7,6.8h.6l-4-7.4,6.5-11.9,24.2,12.1-14.4,7.2h1.2l13.9-6.9h0ZM71.2,237l-29.7,54.5-17.8-8.9-9.3-17.3,56.8-28.3h0ZM22.9,282.1l-21.1-10.5,12.2-6.1,9,16.6ZM41.3,291.9l-6.3,11.5-10.9-20.1,17.1,8.5h0Z"/>
        <path class="st3" d="M168.9,237.1c0,0,.2,0,.3,0v-1h-.6v1c0,0,.2,0,.3,0Z"/>
        <path class="st3" d="M163.5,242.1l-.5-5.7c-.2,0-.4,0-.5,0l.6,6.6.5-.9h0Z"/>
        <path class="st3" d="M159.2,250l-2.4-12.9c-.2,0-.4,0-.5,0l2.5,13.6.4-.8Z"/>
        <path class="st3" d="M155.8,256.3l-5-18c-.2,0-.3.1-.5.1l5.2,18.5.4-.7h0Z"/>
        <path class="st3" d="M151.8,258.3l-6.9-18.1c-.2,0-.3.1-.5.2l6.7,17.6.7.4h0Z"/>
        <path class="st3" d="M145.3,255.1l-6.2-12.7c-.2,0-.3.1-.5.2l5.9,12,.8.4h0Z"/>
        <path class="st3" d="M137.2,251l-3.5-5.9c-.2,0-.3.2-.5.3l3.1,5.2.9.5h0Z"/>
        <path class="st3" d="M107.3,270.4l6.3,3.5-.5-.9-5.5-3.1c0,.2-.2.3-.3.5h0Z"/>
        <path class="st3" d="M104.5,275.7l13.4,6-.4-.8-12.7-5.7c0,.2-.2.3-.2.5h0Z"/>
        <path class="st3" d="M102.1,281.2l19.1,6.7-.4-.7-18.5-6.5c0,.2-.1.3-.2.5h0Z"/>
        <path class="st3" d="M100.3,286.9l18.7,4.8.7-.4-19.3-5c0,.2-.1.3-.2.5h0Z"/>
        <path class="st3" d="M99,292.7l13.5,2.3.8-.4-14.2-2.4c0,.2,0,.3,0,.5h0Z"/>
        <path class="st3" d="M98.2,298.6l6,.5.9-.5-6.9-.6c0,.2,0,.4,0,.5h0Z"/>
        <path class="st3" d="M97.9,304.3v.3h1.1c0,0,0-.2,0-.3s0-.2,0-.3h-1.1v.3Z"/>
        <path class="st3" d="M98.2,310.5l6.9-.6-.9-.5-6,.5c0,.2,0,.4,0,.5h0Z"/>
        <path class="st3" d="M127.6,246.3l2.2,1.1c1.1-.7,2.2-1.3,3.3-2,.2,0,.3-.2.5-.3,1.6-.9,3.3-1.7,5-2.5.2,0,.3-.1.5-.2,1.7-.8,3.4-1.5,5.2-2.1.2,0,.3-.1.5-.2,1.8-.6,3.6-1.2,5.4-1.6.2,0,.3-.1.5-.1,1.8-.5,3.6-.8,5.5-1.2.2,0,.4,0,.5,0,1.8-.3,3.7-.5,5.6-.7.2,0,.4,0,.5,0,1.9-.1,3.7-.2,5.6-.2h.6c.5,0,1.1,0,1.6,0v-2.1c-.6,0-1.3,0-1.9,0-15.3,0-29.5,4.5-41.3,12.3h0Z"/>
        <path class="st3" d="M98.2,309.9c-.2-1.8-.3-3.6-.3-5.4v-.5c0-1.8.1-3.6.3-5.4,0-.2,0-.4,0-.5.2-1.8.4-3.6.7-5.4,0-.2,0-.3,0-.5.3-1.8.7-3.6,1.2-5.3,0-.2.1-.3.2-.5.5-1.8,1.1-3.5,1.7-5.2,0-.2.1-.3.2-.5.7-1.7,1.4-3.4,2.2-5,0-.2.2-.3.2-.5.8-1.6,1.7-3.2,2.6-4.8,0-.2.2-.3.3-.5.7-1.1,1.4-2.2,2.1-3.3l-1.2-2.1c-8.1,11.3-12.8,25-12.8,39.7s.1,4.8.4,7.2h2.2c0-.3,0-.6,0-.9,0-.2,0-.4,0-.5h0Z"/>
        <path class="st3" d="M104.8,257.7l-1.1-2.1c-10.9,13.4-17.4,30.3-17.4,48.6s.1,4.8.3,7.2h2.2c-.2-2.4-.4-4.7-.4-7.2,0-17.4,6.1-33.6,16.3-46.5h0Z"/>
        <path class="st3" d="M118.3,241.6l2.2,1.1c13.5-9.8,30.3-15.6,48.4-15.6s1.3,0,1.9,0v-2.1c-.6,0-1.3,0-1.9,0-19,0-36.6,6.2-50.6,16.7h0Z"/>
        <path class="st3" d="M92.1,302.7c-.9,0-1.6.7-1.6,1.6h0c0,1,.7,1.6,1.6,1.6s1.6-.7,1.6-1.6-.7-1.6-1.6-1.6Z"/>
        <path class="st3" d="M148.5,231.5l.3,1.5-.4-1.5c-.9.2-1.4,1.1-1.2,1.9.2.7.8,1.2,1.6,1.2s.3,0,.4,0c0,0,.1,0,.2,0,.9-.2,1.4-1.1,1.1-1.9-.2-.8-1.2-1.3-2-1.1h0Z"/>
        <path class="st3" d="M96.3,285.6c.2-.8-.3-1.7-1.2-1.9-.9-.2-1.8.3-2,1.1l1.5.5-1.6-.4c-.2.8.3,1.7,1.1,1.9.1,0,.3,0,.4,0,.7,0,1.4-.5,1.6-1.2h0q0-.1,0-.1Z"/>
        <path class="st3" d="M96.1,280.6c.2,0,.4.1.6.1.7,0,1.3-.4,1.5-1h0c.3-.9-.1-1.8-1-2.1-.8-.3-1.8.1-2.1.9l1.5.6-1.5-.5c-.3.8.1,1.7,1,2h0Z"/>
        <path class="st3" d="M135.8,236s-.1,0-.1,0c-.8.4-1.1,1.3-.7,2,.3.6.9.9,1.5.9s.5,0,.7-.1c.8-.4,1.2-1.3.8-2.1-.4-.8-1.3-1.1-2.2-.8h0Z"/>
        <path class="st3" d="M168.8,229c-.9,0-1.6.7-1.6,1.6s.8,1.6,1.7,1.6,1.6-.7,1.6-1.6-.7-1.6-1.6-1.6h-.1Z"/>
        <path class="st3" d="M142,233.5h0c-.8.3-1.2,1.2-.9,2,.2.6.9,1,1.6,1s.4,0,.6-.1c.8-.3,1.3-1.2.9-2s-1.3-1.2-2.1-.9h0Z"/>
        <path class="st3" d="M92.6,296.3c-.9-.1-1.7.5-1.8,1.4h0c0,1,.6,1.7,1.5,1.8h.1c.8,0,1.6-.7,1.6-1.5,0-.9-.6-1.6-1.5-1.7h0Z"/>
        <path class="st3" d="M92.3,309.1c-.9,0-1.6.8-1.5,1.7h0c0,.3,0,.5.1.6h2.9c.1-.3.2-.5.2-.8,0-.9-.9-1.5-1.7-1.4h0Z"/>
        <path class="st3" d="M155.3,230.1s-.1,0-.2,0c-.9.2-1.4.9-1.2,1.8.1.8.9,1.3,1.7,1.3s.2,0,.3,0c.9-.1,1.5-.9,1.4-1.8-.1-.8-1-1.4-1.9-1.3h0Z"/>
        <path class="st3" d="M104.6,261.1l1.3,1-1.3-.9c-.5.7-.3,1.7.4,2.2.3.2.6.3.9.3.5,0,1-.2,1.3-.7,0,0,0-.1,0-.1,0,0,0-.2.1-.3l-1.2-2.1c-.6-.1-1.3.1-1.7.6h0Z"/>
        <path class="st3" d="M101.5,268.8c.2.1.5.2.8.2.6,0,1.2-.3,1.5-.8.5-.7.2-1.7-.6-2.1-.8-.4-1.8-.2-2.2.6,0,0,0,.1,0,.1-.4.7-.2,1.7.6,2.1h0Z"/>
        <path class="st3" d="M93.5,289.9c-.9-.2-1.7.4-1.9,1.3h0c-.2,1,.5,1.7,1.3,1.9,0,0,.2,0,.3,0,.8,0,1.5-.6,1.6-1.3.2-.8-.4-1.7-1.3-1.8h0Z"/>
        <path class="st3" d="M125.7,245.2s0,0,.1,0c.7-.5.9-1.5.3-2.2-.5-.7-1.6-.8-2.3-.4,0,0,0,0,0,0-.5.3-.7.8-.7,1.4l2.5,1.2s0,0,0,0h0Z"/>
        <path class="st3" d="M129.7,239.1l.7,1.4-.8-1.4c-.8.4-1,1.4-.6,2.1.3.5.8.8,1.4.8s.5,0,.8-.2h.1c.8-.5,1-1.5.6-2.2-.5-.7-1.5-1-2.2-.6Z"/>
        <path class="st3" d="M162,229.3h-.1c-.9,0-1.5.8-1.4,1.7,0,.8.8,1.4,1.7,1.4h.2c.9,0,1.6-.8,1.5-1.7,0-.9-.9-1.5-1.8-1.4h0Z"/>
        <path class="st3" d="M98.6,274.6c.2,0,.4.1.7.1.6,0,1.3-.4,1.5-.9.4-.8,0-1.7-.8-2.1s-1.8,0-2.2.8h0c-.4.9,0,1.8.8,2.1h0Z"/>
        <polygon class="st2" points="136.2 292.7 134.3 293.6 135 294.9 136.2 292.7"/>
        <polygon class="st2" points="159.3 271.6 157.9 270.9 156.9 272.8 159.3 271.6"/>
        <polygon class="st2" points="108.6 246.3 130.2 286.1 143.2 279.6 150.1 267 108.6 246.3"/>
        <polygon class="st2" points="168.9 250.6 162 263.4 168.9 266.8 170.8 265.9 170.8 254.1 168.9 250.6"/>
        <path class="st2" d="M168.9,276.4l-19.1,9.5-9.8,18.1,4,7.4h3.8c.5-1.9,1.5-3.7,3-5.2.8-.8,1.8-1.5,2.9-2-1.1-.5-2-1.2-2.9-2-4.4-4.3-4.4-11.2,0-15.4,2.1-2.1,5-3.2,8-3.2s5.9,1.1,8,3.2c.8.8,1.5,1.7,2.1,2.8.5-.9,1.1-1.8,1.9-2.6v-9.7l-1.9-.9h0Z"/>
        <path class="st2" d="M168.9,310.1c-.4,0-.7,0-1.1-.1,0,.3,0,.7,0,1,.6-.2,1.1-.6,1.5-1-.2,0-.3,0-.4,0h0Z"/>
        <path class="st2" d="M159.2,294.9c.2,1.2,1.1,2.8,2.6,4.3.7.7,1.5,1.2,2.2,1.7.4-.5.8-.9,1.4-1.3-.4-.7-1-1.4-1.7-2.1-1.5-1.5-3.2-2.4-4.4-2.5h0Z"/>
        <polygon class="st2" points="126.3 310.9 130 304.1 126.5 297.5 113 304.3 126.3 310.9"/>
        <path class="st2" d="M163.7,311c.7-.7,1.3-1.4,1.7-2.1-.5-.4-1-.8-1.4-1.3-.7.4-1.5,1-2.2,1.7-.7.7-1.3,1.4-1.7,2.1h3.2c.1-.1.3-.2.4-.4h0Z"/>
        <path class="st2" d="M170,293.2c0,.5-.5.9-1.1.9s-1-.4-1.1-.9c-.3-1.9-1.2-3.6-2.5-4.9-1.7-1.7-4-2.6-6.5-2.6s-4.7.9-6.5,2.6c-3.6,3.4-3.6,9,0,12.4,1.4,1.3,3.1,2.2,5.1,2.4.5,0,.9.5.9,1.1s-.4,1-.9,1.1c-2,.3-3.7,1.1-5.1,2.4-1.1,1.1-1.9,2.3-2.3,3.7h4.8c.3-1.4,1-2.8,2.2-4,1.7-1.6,4-2.4,6-2.2,0-.3-.1-.7-.1-1s0-.7.1-1c-2,.2-4.3-.5-6-2.2-2.8-2.6-3.1-6.6-.7-8.9,2.4-2.3,6.6-2,9.3.7,1.7,1.6,2.5,3.8,2.2,5.8.3,0,.7-.1,1.1-.1s.7,0,1.1.1c-.2-1.3.1-2.6.8-3.9v-4c-.4.8-.7,1.6-.8,2.5h0Z"/>
        <path class="st3" d="M168.9,239.2c-.8,0-1.6.4-2,1.2l-11.9,21.9-55.9-27.9c-.3-.2-.7-.2-1-.2-.6,0-1.1.2-1.6.6-.7.7-.8,1.7-.4,2.5l29.2,53.6-23,11.5c-.7.4-1.2,1.1-1.2,1.9s.5,1.5,1.2,1.9l10.6,5.3h4.2l-13.9-6.9c0,0-.2-.1-.2-.2s0-.2.2-.2l24.7-12.3-30-55.2c0-.1,0-.2,0-.3,0,0,.2-.1.3,0l57.6,28.7,12.8-23.6c0-.2.4-.2.5,0l1.7,3.1v-4c-.4-.7-1.1-1.1-1.9-1.1h0Z"/>
        <polygon class="st3" points="170.8 272.3 170.8 271 169.5 271.6 170.8 272.3"/>
        <polygon class="st3" points="168.9 241.9 156.4 265.1 168.9 271.3 170.8 270.4 170.8 268.3 168.9 269.2 159 264.3 168.9 246 170.8 249.5 170.8 245.5 168.9 241.9"/>
        <polygon class="st3" points="168.9 271.9 146.7 283 135.3 304.1 139.3 311.4 141.5 311.4 137.5 304 148.2 284.3 148.5 284.2 168.9 274 170.8 274.9 170.8 272.9 168.9 271.9"/>
        <path class="st3" d="M168.3,271.6l-12.2-6.1-9,16.6,21.1-10.5ZM157,268l7.1,3.6-12.4,6.2,5.3-9.7h0Z"/>
        <path class="st3" d="M135,303.5l10.9-20.1-17.1,8.5,6.3,11.6h0ZM141.4,287.7l-6.3,11.7-3.7-6.7,10-5h0Z"/>
        <polygon class="st3" points="135 304.6 131.4 311.4 133.5 311.4 135 308.6 136.5 311.4 138.7 311.4 135 304.6"/>
        <polygon class="st3" points="134.7 304.1 128.2 292.2 104 304.3 118.4 311.4 122.6 311.4 108.2 304.3 127.4 294.7 132.5 304.1 128.5 311.4 130.7 311.4 134.7 304.1"/>
        <path class="st3" d="M128.5,291.5l17.9-8.9,9.3-17.3-56.8-28.3s29.6,54.5,29.6,54.5ZM103.4,241.3l49.7,24.7-8.2,15.1-15.6,7.8-25.9-47.6h0Z"/>
        <path class="st2" d="M168.9,237.1c0,0-.2,0-.3,0-1.5,0-2.9.9-3.7,2.3l-1.5,2.7-.5.9-3.8,7-.4.8-3,5.5-.4.7-1.3,2.4-2.4-1.2-.7-.4-5.7-2.8-.8-.4-7.3-3.6-.9-.5-6.4-3.2-2.2-1.1-2-1-2.5-1.2-2.7-1.3-2.2-1.1-18.1-9c-1.7-.8-3.8-.5-5.2.8-1.4,1.3-1.7,3.3-.8,5l9.4,17.3,1.1,2.1,1.5,2.7,1.2,2.1,1.1,2,1.2,2.1,3.4,6.3.5.9,3.8,7,.4.8,3,5.5.4.7,1.2,2.1-2.6,1.3-.7.4-5.8,2.9-.8.4-7.3,3.7-.9.5-2.8,1.4c-1.4.7-2.3,2-2.4,3.5,0,0,0,.2,0,.3s0,.2,0,.3c0,1.5,1,2.8,2.4,3.5l2.8,1.4.9.5,3.1,1.5h4.8l-10.6-5.3c-.7-.4-1.2-1.1-1.2-1.9s.5-1.5,1.2-1.9l23-11.5-29.2-53.6c-.4-.8-.3-1.8.4-2.5s1-.6,1.6-.6.7,0,1,.2l55.9,27.9,11.9-21.9c.4-.7,1.1-1.2,2-1.2s1.5.4,1.9,1.1v-2.8c-.5-.2-1.1-.4-1.6-.4,0,0-.2,0-.3,0h0Z"/>
        <path class="st2" d="M135,299.4l6.3-11.7-10,5,3.7,6.7h0ZM136.2,292.7l-1.2,2.1-.7-1.2,1.8-.9h0Z"/>
        <path class="st2" d="M164.1,271.6l-7.1-3.6-5.3,9.7,12.4-6.2h0ZM157.9,270.9l1.4.7-2.4,1.2,1-1.9h0Z"/>
        <polygon class="st2" points="168.9 274 148.5 284.2 148.2 284.3 137.5 304 141.5 311.4 144 311.4 140 304 149.8 285.9 168.9 276.4 170.8 277.3 170.8 274.9 168.9 274"/>
        <polygon class="st2" points="168.9 246 159 264.3 168.9 269.2 170.8 268.3 170.8 265.9 168.9 266.8 162 263.4 168.9 250.6 170.8 254.1 170.8 249.5 168.9 246"/>
        <path class="st2" d="M132.5,304.1l-5.1-9.4-19.2,9.6,14.4,7.2h6l4-7.4h0ZM113,304.3l13.5-6.7,3.6,6.5-3.7,6.8-13.3-6.6h0Z"/>
        <polygon class="st2" points="135 308.6 133.5 311.4 136.5 311.4 135 308.6"/>
        <path class="st2" d="M129.3,289l15.6-7.8,8.2-15.1-49.7-24.7,25.9,47.6h0ZM150.1,267l-6.8,12.6-13,6.5-21.6-39.8,41.5,20.7h0Z"/>
        <path class="st3" d="M168.9,289.6c-.5-1-1.2-1.9-2.1-2.8-2.1-2.1-5-3.2-8-3.2s-5.9,1.1-8,3.2c-4.4,4.3-4.4,11.2,0,15.4.8.8,1.8,1.5,2.9,2-1.1.5-2,1.2-2.9,2-1.5,1.5-2.5,3.3-3,5.2h2.3c.4-1.3,1.2-2.6,2.3-3.7,1.4-1.3,3.1-2.2,5.1-2.4.5,0,.9-.5.9-1.1s-.4-1-.9-1.1c-2-.3-3.7-1.1-5.1-2.4-3.6-3.4-3.6-9,0-12.4,1.7-1.7,4-2.6,6.5-2.6s4.7.9,6.5,2.6c1.4,1.3,2.3,3,2.5,4.9,0,.5.5.9,1.1.9s1-.4,1.1-.9c.1-.9.4-1.7.8-2.5v-3.7c-.8.8-1.4,1.6-1.9,2.6h0Z"/>
        <path class="st3" d="M164,300.9c-.7-.4-1.5-1-2.2-1.7-1.5-1.5-2.5-3.1-2.6-4.3,1.2.2,2.9,1.1,4.4,2.5.7.7,1.3,1.4,1.7,2.1.7-.5,1.5-.8,2.5-1,.2-2-.5-4.1-2.2-5.8-2.8-2.6-6.9-2.9-9.3-.7-2.4,2.3-2.1,6.3.7,8.9,1.7,1.6,4,2.4,6,2.2.2-.9.5-1.7,1-2.4h0Z"/>
        <path class="st3" d="M161.8,309.3c.7-.7,1.5-1.2,2.2-1.7-.5-.7-.9-1.5-1-2.4-2-.2-4.3.5-6,2.2s-1.9,2.6-2.2,4h5.3c.4-.7,1-1.4,1.7-2.1h0Z"/>
        <path class="st3" d="M165.4,309c-.4.7-1,1.4-1.7,2.1-.1.1-.3.2-.4.4h2.6c.7,0,1.4-.1,2-.4,0-.3,0-.7,0-1-.9-.2-1.7-.5-2.5-1h0Z"/>
        <path class="st3" d="M170,298.5c.3,0,.6.1.8.2v-4.1c-.7,1.3-1,2.6-.8,3.9h0Z"/>
        <path class="st2" d="M170,298.5c-.3,0-.7-.1-1.1-.1s-.7,0-1.1.1c-.9.2-1.7.5-2.5,1-.5.4-1,.8-1.4,1.3-.5.7-.9,1.5-1,2.4,0,.3-.1.7-.1,1s0,.7.1,1c.2.9.5,1.7,1,2.4.4.5.8.9,1.4,1.3.7.5,1.5.8,2.5,1,.3,0,.7.1,1.1.1s.3,0,.4,0c.9-.9,1.5-2.1,1.5-3.4h0c-.5.3-1.2.6-1.9.6-1.7,0-3.1-1.4-3.1-3s1.4-3,3.1-3,1.4.2,1.9.6v-3.1c-.3,0-.5-.2-.8-.2h0Z"/>
        <path class="st3" d="M168.9,301.2c-1.7,0-3.1,1.3-3.1,3s1.4,3,3.1,3,1.4-.2,1.9-.6v-4.7c-.5-.4-1.2-.6-1.9-.6Z"/>
        <path class="st2" d="M169.2,241.3c0-.2-.4-.2-.5,0l-12.8,23.6-57.6-28.7c-.1,0-.2,0-.3,0,0,0-.1.2,0,.3l30,55.2-24.7,12.3c0,0-.2.1-.2.2s0,.2.2.2l13.9,6.9h1.2l-14.4-7.2,24.2-12.1,6.5,11.9-4,7.4h.6l3.7-6.8,3.7,6.8h.6l-4-7.4,11.4-21.1,22.2-11,1.9.9v-.6l-1.3-.7,1.3-.6v-.6l-1.9.9-12.5-6.2,12.5-23.1,1.9,3.5v-1.2l-1.7-3.1h0ZM98.8,237l56.8,28.3-9.3,17.3-17.9,8.9-29.6-54.5h0ZM145.9,283.4l-10.9,20.1-6.3-11.6,17.1-8.5h0ZM156.2,265.5l12.2,6.1-21.1,10.5,9-16.6h0Z"/>
      </g>
      <rect class="st0" x="-.8" y="-5.3" width="171.6" height="316.7" rx="4.8" ry="4.8"/>
      <path class="st3" d="M155.6,76.1c-.2,0-.4,0-.7-.1,0,0-.1,0-.1,0-.8-.4-1.2-1.3-.8-2.1.4-.8,1.4-1.1,2.2-.7.8.4,1.2,1.3.8,2.1-.3.6-.8.9-1.5.9h0Z"/>
      <path class="st3" d="M162.2,76.9c-.2,0-.4,0-.7-.1,0,0-.1,0-.1,0-.8-.4-1.2-1.3-.8-2.1.4-.8,1.4-1.1,2.2-.7.8.4,1.2,1.3.8,2.1-.3.6-.8.9-1.5.9h0Z"/>
      <path class="st3" d="M104.8,83.3c-.2,0-.4,0-.7-.1,0,0-.1,0-.1,0-.8-.4-1.2-1.3-.8-2.1.4-.8,1.4-1.1,2.2-.7.8.4,1.2,1.3.8,2.1-.3.6-.8.9-1.5.9h0Z"/>
      <path class="st3" d="M98.3,82c-.2,0-.4,0-.7-.1,0,0-.1,0-.1,0-.8-.4-1.2-1.3-.8-2.1.4-.8,1.4-1.1,2.2-.7.8.4,1.2,1.3.8,2.1-.3.6-.8.9-1.5.9h0Z"/>
      <path class="st3" d="M76.8,16.3c-.2,0-.4,0-.7-.1,0,0-.1,0-.1,0-.8-.4-1.2-1.3-.8-2.1s1.4-1.1,2.2-.7c.8.4,1.2,1.3.8,2.1-.3.6-.8.9-1.5.9h0Z"/>
      <path class="st3" d="M1.2,77.2c-.2,0-.4,0-.7-.1,0,0-.1,0-.1,0-.8-.4-1.2-1.3-.8-2.1.4-.8,1.4-1.1,2.2-.7.8.4,1.2,1.3.8,2.1-.3.6-.8.9-1.5.9h0Z"/>
      <path class="st3" d="M9.3,141.9c-.2,0-.4,0-.7-.1,0,0-.1,0-.1,0-.8-.4-1.2-1.3-.8-2.1s1.4-1.1,2.2-.7c.8.4,1.2,1.3.8,2.1-.3.6-.8.9-1.5.9h0Z"/>
      <path class="st3" d="M73.3,280.4c-.2,0-.4,0-.7-.1,0,0-.1,0-.1,0-.8-.4-1.2-1.3-.8-2.1.4-.8,1.4-1.1,2.2-.7.8.4,1.2,1.3.8,2.1-.3.6-.8.9-1.5.9h0Z"/>
      <path class="st3" d="M14.5,233.1c-.2,0-.4,0-.7-.1,0,0-.1,0-.1,0-.8-.4-1.2-1.3-.8-2.1s1.4-1.1,2.2-.7c.8.4,1.2,1.3.8,2.1-.3.6-.8.9-1.5.9h0Z"/>
    </g>
  </g>
</svg>