<?xml version="1.0" encoding="UTF-8"?>
<svg id="Layer_1" xmlns="http://www.w3.org/2000/svg" version="1.1" viewBox="0 0 360 360">
  <!-- Generator: Adobe Illustrator 30.2.1, SVG Export Plug-In . SVG Version: 2.1.1 Build 1)  -->
  <defs>
    <style>
      .st0 {
        stroke-width: 2px;
      }

      .st0, .st1 {
        fill: none;
        stroke: #f7cc66;
        stroke-linecap: round;
        stroke-miterlimit: 10;
      }

      .st1 {
        stroke-width: 2.2px;
      }

      .st2 {
        fill: #fff;
      }

      .st3 {
        fill: #f7cc66;
      }
    </style>
  </defs>
  <g>
    <path class="st2" d="M255,219.6c-.6,3.1-36.7,33.2-81.9,33.2s-82.6-31.8-81.9-33.2c6.5-12.8,37.3-35.8,82.6-35.8s81.9,32.7,81.3,35.8Z"/>
    <path class="st3" d="M255.5,219.7c-.8,1.9-2.6,3.1-4.1,4.4-4.4,3.7-9.1,7-14,10-13,8.2-27.1,14.7-42.2,18.2-35.1,8.6-69.4-5.4-97.5-26.1-2.3-1.8-4.6-3.5-6.6-5.6-.2-.2-.3-.4-.5-.7,0,0,0-.2,0-.2,0,0,0-.1,0-.3,0-.2,0-.3,0-.3h0c0,0,.2-.4.2-.4,0,0,.7-1.3.7-1.3,2.5-4.1,6-7.7,9.5-10.9,7.9-7.1,17.2-12.8,26.8-17.4,14.2-6.7,30-10.7,45.7-11.5,8.1.5,16.1,2,23.7,4.3,15.1,4.6,28.8,12.2,41.4,21.4,5.4,4,10.8,8.2,15.2,13.3.6.9,1.6,1.7,1.5,2.9h0ZM254.4,219.5c-.7-1.4-2.1-2.7-3.3-3.9-4.2-3.8-8.9-7.1-13.7-10-18.9-11.2-42.1-17.2-63.7-15.8-16.5-.8-33.4.9-49.1,6.5-7.8,2.9-15.6,6.8-22.2,11.9-3.7,2.8-7.2,6.1-9.8,10,0,0-.7,1.2-.7,1.2,0,0-.2.3-.2.3,0,0,0,0,0,0,0,0,0,0,0-.1,4.1,4.4,10.5,8.8,16.1,12.2,33,19.8,72.2,24.1,108.5,10.8,10.7-3.8,20.9-9.1,30.1-15.8,2.8-2.3,6-4.4,8.1-7.5h0Z"/>
  </g>
  <g>
    <circle class="st3" cx="173" cy="216.4" r="33.4"/>
    <path class="st2" d="M150.3,217.6c0-14.1,11.5-25.6,25.6-25.6s8.3,1,11.8,2.9c-4.5-3.8-10.2-6-16.5-6-14.1,0-25.6,11.5-25.6,25.6s5.6,18.4,13.8,22.7c-5.5-4.7-9.1-11.7-9.1-19.5Z"/>
  </g>
  <line class="st0" x1="97.2" y1="192.9" x2="84.6" y2="180.3"/>
  <line class="st0" x1="173" y1="171" x2="173" y2="129.7"/>
  <line class="st1" x1="135" y1="173.7" x2="122.4" y2="140.9"/>
  <line class="st0" x1="249" y1="192.9" x2="261.6" y2="180.3"/>
  <line class="st1" x1="211.2" y1="173.7" x2="223.9" y2="140.9"/>
  <line class="st0" x1="97.1" y1="245.6" x2="84.5" y2="258.2"/>
  <line class="st0" x1="173" y1="267.5" x2="173" y2="308.8"/>
  <line class="st0" x1="134.9" y1="264.6" x2="122.3" y2="291.1"/>
  <line class="st0" x1="248.9" y1="245.6" x2="261.6" y2="258.2"/>
  <line class="st0" x1="211.2" y1="264.6" x2="223.8" y2="291.1"/>
</svg>