<?xml version="1.0" encoding="UTF-8"?>
<svg id="Layer_1" xmlns="http://www.w3.org/2000/svg" version="1.1" viewBox="0 0 360 360">
  <!-- Generator: Adobe Illustrator 30.2.1, SVG Export Plug-In . SVG Version: 2.1.1 Build 1)  -->
  <defs>
    <style>
      .st0 {
        fill: none;
        stroke: #f7cc66;
        stroke-linecap: round;
        stroke-miterlimit: 10;
        stroke-width: 2px;
      }

      .st1 {
        fill: #fff;
      }

      .st2 {
        fill: #f7cc66;
      }
    </style>
  </defs>
  <g>
    <path class="st1" d="M98.1,145.3c6.5,12.8,37.3,35.8,82.6,35.8s81.9-32.7,81.3-35.8"/>
    <path class="st2" d="M98.6,145c3.9,6.5,10.3,11.2,16.8,15.2,13,7.9,28.1,11.3,42.8,13.6,14.6,2,29.3,2.8,43.9,0,14.5-2.8,28.6-8.2,41.6-15.5,3.3-1.8,6.5-3.8,9.6-6,2.9-2.1,6.1-4.2,8.2-7,0,0,1.1-.2,1.1-.2,0,1.3-.8,2.1-1.4,3.1-4.2,5.4-9.4,9.9-14.8,14.1-32.6,25-75.4,32.3-112.8,13.5-12.3-6.5-24.3-14.2-32.8-25.3-1.2-1.6-2.3-3.3-3.1-5.1l1-.5h0Z"/>
  </g>
  <path class="st1" d="M157.3,153.1c0-14.1,11.5-25.6,25.6-25.6s8.3,1,11.8,2.9c-4.5-3.8-10.2-6-16.5-6-14.1,0-25.6,11.5-25.6,25.6s5.6,18.4,13.8,22.7c-5.5-4.7-9.1-11.7-9.1-19.5Z"/>
  <line class="st0" x1="104.1" y1="181" x2="91.5" y2="193.6"/>
  <line class="st0" x1="179.9" y1="203" x2="179.9" y2="244.3"/>
  <line class="st0" x1="141.9" y1="200.1" x2="129.3" y2="226.6"/>
  <line class="st0" x1="255.9" y1="181" x2="268.5" y2="193.6"/>
  <line class="st0" x1="218.1" y1="200.1" x2="230.7" y2="226.6"/>
</svg>