<?xml version="1.0" encoding="UTF-8"?>
<svg id="Layer_1" xmlns="http://www.w3.org/2000/svg" version="1.1" viewBox="0 0 360 360">
  <!-- Generator: Adobe Illustrator 30.2.1, SVG Export Plug-In . SVG Version: 2.1.1 Build 1)  -->
  <defs>
    <style>
      .st0 {
        fill: #fff;
      }

      .st1 {
        fill: #f7cc66;
      }

      .st2 {
        stroke-width: 4.4px;
      }

      .st2, .st3 {
        fill: none;
        stroke: #f7cc66;
        stroke-linecap: round;
        stroke-miterlimit: 10;
      }

      .st3 {
        stroke-width: 4px;
      }
    </style>
  </defs>
  <g>
    <path class="st0" d="M343.8,180.7c-1.2,6.2-73.4,66.4-163.7,66.4S15,183.5,16.4,180.7c13-25.6,74.6-71.6,165.1-71.6s163.7,65.4,162.5,71.6h-.2Z"/>
    <path class="st1" d="M344.8,180.9c-1.6,3.8-5.2,6.2-8.2,8.8-8.8,7.4-18.2,14-28,20-26,16.4-54.2,29.4-84.4,36.4-70.2,17.2-138.7-10.8-194.9-52.2-4.6-3.6-9.2-7-13.2-11.2-.4-.4-.6-.8-1-1.4v-1.6h0l.4-.8,1.4-2.6c5-8.2,12-15.4,19-21.8,15.8-14.2,34.4-25.6,53.6-34.8,28.4-13.4,60-21.4,91.4-23,16.2,1,32.2,4,47.4,8.6,30.2,9.2,57.6,24.4,82.8,42.8,10.8,8,21.6,16.4,30.4,26.6,1.2,1.8,3.2,3.4,3,5.8h0l.4.4ZM342.6,180.5c-1.4-2.8-4.2-5.4-6.6-7.8-8.4-7.6-17.8-14.2-27.4-20-37.8-22.4-84.2-34.4-127.3-31.6-33-1.6-66.8,1.8-98.1,13-15.6,5.8-31.2,13.6-44.4,23.8-7.4,5.6-14.4,12.2-19.6,20l-1.4,2.4-.4.6h0v-.2c8.2,8.8,21,17.6,32.2,24.4,66,39.6,144.3,48.2,216.9,21.6,21.4-7.6,41.8-18.2,60.2-31.6,5.6-4.6,12-8.8,16.2-15h0l-.2.4Z"/>
  </g>
  <g>
    <circle class="st1" cx="179.9" cy="174.3" r="66.8"/>
    <path class="st0" d="M134.5,176.7c0-28.2,23-51.2,51.2-51.2s16.6,2,23.6,5.8c-9-7.6-20.4-12-33-12-28.2,0-51.2,23-51.2,51.2s11.2,36.8,27.6,45.4c-11-9.4-18.2-23.4-18.2-39v-.2Z"/>
  </g>
  <line class="st3" x1="28.4" y1="127.3" x2="3.2" y2="102.1"/>
  <line class="st3" x1="179.9" y1="83.6" x2="179.9" y2="1"/>
  <line class="st2" x1="103.9" y1="88.9" x2="78.8" y2="23.4"/>
  <line class="st3" x1="331.8" y1="127.3" x2="357" y2="102.1"/>
  <line class="st2" x1="256.3" y1="88.9" x2="281.6" y2="23.4"/>
  <line class="st3" x1="28.2" y1="232.7" x2="3" y2="257.9"/>
  <line class="st3" x1="179.9" y1="276.4" x2="179.9" y2="359"/>
  <line class="st3" x1="103.7" y1="270.7" x2="78.6" y2="323.6"/>
  <line class="st3" x1="331.6" y1="232.7" x2="357" y2="257.9"/>
  <line class="st3" x1="256.3" y1="270.7" x2="281.4" y2="323.6"/>
</svg>