<?xml version="1.0" encoding="UTF-8"?>
<svg id="Layer_1" xmlns="http://www.w3.org/2000/svg" version="1.1" viewBox="0 0 360 360">
  <!-- Generator: Adobe Illustrator 30.2.1, SVG Export Plug-In . SVG Version: 2.1.1 Build 1)  -->
  <defs>
    <style>
      .st0 {
        fill: #f7cc66;
      }

      .st1 {
        fill: none;
        stroke: #f7cc66;
        stroke-linecap: round;
        stroke-miterlimit: 10;
        stroke-width: 4px;
      }
    </style>
  </defs>
  <path class="st0" d="M16.8,79.6c7.8,13,20.7,22.5,33.7,30.5,26.1,15.8,56.3,22.7,85.8,27.3,29.3,4,58.7,5.6,88,0,29.1-5.6,57.3-16.4,83.4-31.1,6.6-3.6,13-7.6,19.2-12,5.8-4.2,12.2-8.4,16.4-14l2.2-.4c0,2.6-1.6,4.2-2.8,6.2-8.4,10.8-18.8,19.8-29.7,28.3-65.4,50.1-151.2,64.8-226.2,27.1-24.7-13-48.7-28.5-65.8-50.7-2.4-3.2-4.6-6.6-6.2-10.2l2-1h0l-.2.2.2-.2Z"/>
  <line class="st1" x1="27.8" y1="151.7" x2="2.6" y2="177"/>
  <line class="st1" x1="179.8" y1="195.8" x2="179.8" y2="278.6"/>
  <line class="st1" x1="103.6" y1="190" x2="78.3" y2="243.2"/>
  <line class="st1" x1="332.2" y1="151.7" x2="357.4" y2="177"/>
  <line class="st1" x1="256.4" y1="190" x2="281.7" y2="243.2"/>
</svg>